<?xml version="1.0" encoding="UTF-8" standalone="no"?>
<!DOCTYPE svg PUBLIC "-//W3C//DTD SVG 1.1//EN" "http://www.w3.org/Graphics/SVG/1.1/DTD/svg11.dtd">
<svg width="100%" height="100%" viewBox="0 0 1080 1244" version="1.1" xmlns="http://www.w3.org/2000/svg" xmlns:xlink="http://www.w3.org/1999/xlink" xml:space="preserve" xmlns:serif="http://www.serif.com/" style="fill-rule:evenodd;clip-rule:evenodd;stroke-linejoin:round;stroke-miterlimit:2;">
    <g transform="matrix(1.14306,0,0,1.14306,-77.244,-88.985)">
        <g transform="matrix(6.15981,0,0,6.15981,539.928,1065.51)">
            <path d="M-57.499,-38.889L-57.499,-105.11L0,-138.23L57.501,-105.11L57.501,-38.889L0,-5.771L-57.499,-38.889Z" style="fill:white;fill-rule:nonzero;"/>
        </g>
        <g transform="matrix(6.15981,0,0,6.15981,437.193,415.102)">
            <path d="M0,0.747C-0.543,0.629 -0.771,0.403 -0.732,0.06C-0.698,-0.236 -0.444,-0.363 0.074,-0.33C0.051,0.021 0.026,0.373 0,0.747M0.801,-0.26C1.625,-0.041 2.291,0.395 2.862,0.985C2.85,1.025 2.837,1.064 2.825,1.104C2.157,1.058 1.489,1.011 0.801,0.962L0.801,-0.26ZM-1.675,-0.079C-1.773,0.533 -1.408,1.202 -0.801,1.476C-0.541,1.593 -0.262,1.698 0.018,1.739C0.917,1.871 1.819,1.971 2.721,2.083C2.724,2.056 2.726,2.028 2.729,2C3.063,2 3.398,2.017 3.73,1.996C4.28,1.963 4.452,1.629 4.178,1.164C4.155,1.125 4.13,1.087 4.104,1.049C3.39,-0.006 2.43,-0.733 1.211,-1.115C0.696,-1.276 0.172,-1.336 -0.363,-1.27C-1.078,-1.181 -1.573,-0.728 -1.675,-0.079" style="fill:rgb(0,105,246);"/>
        </g>
        <g transform="matrix(6.15981,0,0,6.15981,504.653,420.711)">
            <path d="M0,-1.11C-0.019,-0.885 -0.044,-0.706 -0.045,-0.527C-0.046,-0.363 -0.021,-0.199 -0.007,-0.039C-0.332,0.123 -1.401,0.215 -1.943,0.131C-1.657,-0.375 -0.755,-0.961 0,-1.11M1.189,-1.243C1.385,-1.205 1.56,-1.112 1.61,-0.887C1.655,-0.691 1.548,-0.423 1.344,-0.311C1.178,-0.218 0.989,-0.169 0.771,-0.085C0.747,-0.517 0.726,-0.872 0.705,-1.248C0.869,-1.248 1.034,-1.272 1.189,-1.243M-2.938,1.078C-2.593,1.109 -2.241,1.084 -1.892,1.084C-0.948,1.102 -0.009,1.038 0.91,0.821C1.231,0.745 1.559,0.637 1.843,0.473C2.377,0.163 2.608,-0.346 2.55,-0.953C2.494,-1.562 2.118,-1.948 1.54,-2.107C1.267,-2.181 0.967,-2.219 0.687,-2.197C-1.077,-2.056 -2.387,-1.161 -3.328,0.303C-3.579,0.694 -3.402,1.036 -2.938,1.078" style="fill:rgb(0,105,246);"/>
        </g>
        <g transform="matrix(6.15981,0,0,6.15981,689.935,648.937)">
            <path d="M0,-1.234C0.811,-1.006 1.471,-0.594 2.036,-0.003C1.698,0.152 0.701,0.115 0,-0.072L0,-1.234ZM-0.805,-0.226C-1.339,-0.326 -1.581,-0.56 -1.532,-0.922C-1.492,-1.22 -1.242,-1.338 -0.729,-1.292C-0.756,-0.936 -0.78,-0.583 -0.805,-0.226M-1.374,-2.204C-2.002,-2.041 -2.402,-1.617 -2.481,-1.019C-2.555,-0.466 -2.248,0.162 -1.739,0.436C-1.5,0.562 -1.238,0.676 -0.976,0.72C-0.096,0.867 0.792,0.981 1.674,1.107C1.678,1.076 1.681,1.041 1.683,1.007C2.138,1.007 2.595,1.032 3.048,1.002C3.458,0.974 3.608,0.652 3.424,0.284C3.391,0.216 3.347,0.152 3.306,0.088C2.544,-1.038 1.516,-1.792 0.199,-2.147C-0.317,-2.287 -0.842,-2.341 -1.374,-2.204" style="fill:rgb(0,105,246);"/>
        </g>
        <g transform="matrix(6.15981,0,0,6.15981,752.278,648.6)">
            <path d="M0,-1.104L0,0.072C-0.643,0.107 -1.272,0.143 -1.933,0.178C-1.654,-0.367 -0.737,-0.96 0,-1.104M1.194,-1.245C1.422,-1.218 1.607,-1.109 1.642,-0.865C1.674,-0.639 1.575,-0.438 1.38,-0.324C1.215,-0.229 1.026,-0.176 0.795,-0.084C0.772,-0.515 0.754,-0.859 0.731,-1.249C0.882,-1.249 1.04,-1.263 1.194,-1.245M-2.901,1.062C-2.479,1.09 -2.051,1.068 -1.626,1.068C-1.624,1.092 -1.622,1.117 -1.622,1.141C-0.839,1.049 -0.051,0.983 0.726,0.854C1.107,0.792 1.493,0.656 1.841,0.483C2.373,0.22 2.67,-0.43 2.574,-1.017C2.475,-1.623 2.087,-1.986 1.512,-2.132C1.237,-2.202 0.937,-2.245 0.656,-2.214C-1.077,-2.033 -2.382,-1.153 -3.304,0.304C-3.552,0.698 -3.373,1.031 -2.901,1.062" style="fill:rgb(0,105,246);"/>
        </g>
        <g transform="matrix(6.15981,0,0,6.15981,819.333,519.484)">
            <path d="M0,35.566C-0.269,36.482 -0.812,37.213 -1.583,37.886C-1.772,36.976 -2.087,36.186 -2.67,35.529C-3.264,34.859 -4.02,34.459 -4.909,34.216C-4.804,33.977 -4.709,33.763 -4.611,33.548C-4.29,32.838 -4.068,32.101 -4.012,31.319C-3.937,30.24 -4.19,29.234 -4.694,28.292C-5.018,27.69 -5.375,27.109 -5.71,26.53C-5.426,25.947 -5.147,25.379 -4.847,24.768C-4.647,24.99 -4.438,25.19 -4.271,25.419C-3.896,25.932 -3.52,26.448 -3.187,26.989C-2.831,27.566 -2.79,28.164 -3.273,28.767C-3.337,28.623 -3.396,28.491 -3.453,28.36C-3.664,27.905 -3.859,27.442 -4.089,26.999C-4.241,26.701 -4.483,26.626 -4.729,26.745C-4.987,26.871 -5.044,27.119 -4.907,27.442C-4.55,28.295 -4.19,29.149 -3.854,30.01C-3.685,30.445 -3.564,30.9 -3.422,31.345C-3.39,31.349 -3.357,31.353 -3.323,31.356C-3.122,30.905 -2.918,30.452 -2.703,29.974C-2.581,30.069 -2.481,30.136 -2.394,30.215C-1.504,30.996 -0.793,31.913 -0.24,32.962C0.203,33.802 0.264,34.668 0,35.566M-2.965,41.083C-3.245,42.308 -3.566,43.525 -3.681,44.787C-3.786,45.927 -3.644,47.028 -3.229,48.091C-3.053,48.545 -2.863,48.993 -2.656,49.432C-1.968,50.889 -1.987,52.367 -2.526,53.856C-2.654,54.206 -2.818,54.539 -2.965,54.879C-2.997,54.876 -3.026,54.87 -3.059,54.864C-3.104,54.727 -3.148,54.589 -3.194,54.453C-3.677,52.95 -4.373,51.56 -5.371,50.331C-5.723,49.897 -5.771,49.353 -5.83,48.831C-5.92,48.022 -5.806,47.225 -5.597,46.441C-5.365,45.574 -5.164,44.704 -5.111,43.803C-4.987,41.595 -5.544,39.565 -6.702,37.691C-6.806,37.523 -6.913,37.358 -7.025,37.179C-6.488,36.508 -5.95,35.838 -5.371,35.115C-5.27,35.131 -5.104,35.143 -4.95,35.186C-3.412,35.625 -2.395,37.035 -2.528,38.669C-2.593,39.479 -2.782,40.286 -2.965,41.083M-5.67,54.422C-5.892,55.67 -6.328,56.853 -6.854,58.002C-6.879,58.054 -6.924,58.096 -6.982,58.171C-7.037,58.013 -7.073,57.885 -7.122,57.761C-7.468,56.87 -7.808,55.977 -8.169,55.093C-8.254,54.886 -8.303,54.712 -8.23,54.488C-7.783,53.065 -8.031,51.728 -8.759,50.457C-8.941,50.141 -9.107,49.814 -9.303,49.507C-10.019,48.378 -10.16,47.165 -9.895,45.874C-9.699,44.921 -9.521,43.966 -9.372,43.005C-9.228,42.056 -9.235,41.095 -9.372,40.144C-9.433,39.733 -9.364,39.417 -9.047,39.13C-8.605,38.738 -8.193,38.311 -7.722,37.852C-7.62,38.01 -7.524,38.144 -7.441,38.283C-6.066,40.589 -5.69,43.036 -6.358,45.647C-6.543,46.366 -6.674,47.101 -6.771,47.837C-6.899,48.838 -6.676,49.798 -6.318,50.731C-6.133,51.212 -5.942,51.692 -5.757,52.173C-5.475,52.915 -5.535,53.67 -5.67,54.422M-9.039,53.841C-9.494,55.545 -9.821,57.272 -10.122,59.007C-10.14,59.108 -10.179,59.206 -10.269,59.31C-10.307,59.166 -10.352,59.023 -10.378,58.875C-10.404,58.726 -10.412,58.572 -10.425,58.421C-10.44,58.253 -10.469,58.088 -10.461,57.921C-10.437,57.376 -10.429,56.827 -10.359,56.286C-10.16,54.719 -10.6,53.332 -11.552,52.112C-11.987,51.553 -12.529,51.076 -13.035,50.574C-13.313,50.295 -13.629,50.052 -13.905,49.773C-14.277,49.4 -14.415,48.947 -14.244,48.436C-14.099,48.004 -13.962,47.567 -13.771,47.156C-13.296,46.13 -13.206,45.089 -13.565,44.013C-13.58,43.97 -13.59,43.925 -13.595,43.88C-13.599,43.852 -13.59,43.82 -13.584,43.749C-12.109,43.175 -11.3,41.851 -10.29,40.635C-10.26,40.802 -10.231,40.896 -10.226,40.992C-10.148,42.278 -10.354,43.534 -10.624,44.785C-10.792,45.555 -10.953,46.326 -10.959,47.124C-10.965,47.996 -10.739,48.804 -10.333,49.566C-10.075,50.049 -9.776,50.509 -9.541,51.003C-9.335,51.436 -9.165,51.893 -9.022,52.354C-8.87,52.844 -8.91,53.352 -9.039,53.841M-15.052,54.394C-15.376,54.847 -15.665,55.321 -15.974,55.791C-16.362,55.193 -16.758,54.622 -17.116,54.027C-17.624,53.181 -17.766,52.239 -17.762,51.271C-17.76,50.961 -17.648,50.696 -17.412,50.464C-16.716,49.784 -16.521,48.966 -16.836,48.043C-17.013,47.528 -17.213,47.018 -17.419,46.514C-17.754,45.698 -17.726,44.893 -17.406,44.087L-14.537,44.087C-14.232,44.837 -14.186,45.614 -14.484,46.403C-14.612,46.744 -14.765,47.075 -14.895,47.415C-14.984,47.656 -15.065,47.9 -15.137,48.148C-15.387,49.009 -15.222,49.784 -14.576,50.408C-14.271,50.705 -14.174,51.04 -14.184,51.429C-14.208,52.493 -14.415,53.504 -15.052,54.394M-18.9,50.564C-19.394,51.057 -19.922,51.525 -20.358,52.066C-21.373,53.332 -21.779,54.791 -21.576,56.416C-21.466,57.306 -21.43,58.203 -21.61,59.092C-21.621,59.151 -21.641,59.208 -21.676,59.338C-21.738,59.211 -21.787,59.145 -21.802,59.074C-22.013,57.985 -22.208,56.894 -22.43,55.81C-22.552,55.213 -22.704,54.628 -22.86,54.041C-23.098,53.149 -23.027,52.292 -22.629,51.464C-22.424,51.044 -22.22,50.613 -21.964,50.222C-20.958,48.688 -20.777,47.045 -21.202,45.287C-21.397,44.478 -21.542,43.651 -21.644,42.824C-21.727,42.133 -21.71,41.432 -21.738,40.737C-21.694,40.719 -21.653,40.703 -21.61,40.686C-20.644,41.842 -19.841,43.173 -18.329,43.756C-18.398,44.061 -18.467,44.336 -18.524,44.615C-18.688,45.399 -18.585,46.153 -18.278,46.888C-18.12,47.266 -17.97,47.648 -17.812,48.026C-17.474,48.829 -17.628,49.507 -18.314,50.056C-18.516,50.218 -18.717,50.381 -18.9,50.564M-23.722,54.426C-23.646,54.667 -23.679,54.879 -23.78,55.12C-24.143,55.971 -24.466,56.838 -24.799,57.701C-24.854,57.84 -24.889,57.985 -24.933,58.127C-25.522,57.085 -25.933,56.009 -26.171,54.878C-26.276,54.376 -26.32,53.858 -26.363,53.345C-26.4,52.884 -26.292,52.444 -26.12,52.012C-25.88,51.407 -25.648,50.797 -25.44,50.18C-25.012,48.914 -25.102,47.638 -25.395,46.358C-25.564,45.62 -25.764,44.88 -25.848,44.13C-26.102,41.847 -25.496,39.776 -24.22,37.841C-24.105,37.935 -24.007,38.003 -23.927,38.086C-23.513,38.508 -23.104,38.939 -22.691,39.362C-22.565,39.492 -22.505,39.626 -22.533,39.811C-22.844,41.739 -22.55,43.625 -22.131,45.501C-22.027,45.96 -21.964,46.429 -21.926,46.898C-21.862,47.707 -22.067,48.464 -22.456,49.172C-22.72,49.652 -22.992,50.126 -23.255,50.604C-23.923,51.816 -24.139,53.084 -23.722,54.426M-28.725,54.382C-28.775,54.537 -28.828,54.693 -28.903,54.92C-28.988,54.791 -29.05,54.715 -29.09,54.63C-29.73,53.275 -30.039,51.873 -29.629,50.391C-29.511,49.955 -29.298,49.545 -29.14,49.119C-28.877,48.392 -28.564,47.678 -28.379,46.931C-28.108,45.839 -28.194,44.724 -28.416,43.632C-28.655,42.442 -28.954,41.265 -29.219,40.083C-29.391,39.325 -29.527,38.563 -29.367,37.783C-29.029,36.127 -27.719,35.205 -26.566,35.117C-26.012,35.808 -25.481,36.47 -24.923,37.167C-24.968,37.245 -25.028,37.362 -25.1,37.472C-26.38,39.447 -27.006,41.599 -26.805,43.956C-26.739,44.706 -26.542,45.446 -26.412,46.193C-26.297,46.849 -26.158,47.504 -26.095,48.165C-26.059,48.55 -26.128,48.951 -26.188,49.34C-26.26,49.794 -26.444,50.192 -26.741,50.562C-27.653,51.702 -28.273,52.999 -28.725,54.382M-27.282,54.787C-27.455,54.979 -27.632,55.167 -27.809,55.353C-27.869,55.417 -27.938,55.473 -28.003,55.534C-28.031,55.512 -28.059,55.492 -28.085,55.471C-27.869,54.832 -27.651,54.193 -27.433,53.555C-27.396,53.559 -27.355,53.563 -27.318,53.567C-27.277,53.922 -27.229,54.279 -27.196,54.634C-27.192,54.683 -27.243,54.746 -27.282,54.787M-30.198,57.923C-30.436,57.741 -30.643,57.588 -30.838,57.426C-31.964,56.492 -32.981,55.447 -33.944,54.349C-35.737,52.301 -37.562,50.282 -39.604,48.475C-40.74,47.467 -41.91,46.5 -43.107,45.476C-43.264,45.627 -43.394,45.746 -43.518,45.868C-45.11,47.459 -47.363,47.392 -49.005,46.341C-49.027,46.328 -49.037,46.293 -49.077,46.226C-47.626,45.125 -47.135,43.534 -46.8,41.874C-46.682,41.282 -46.652,40.67 -46.588,40.067C-46.528,39.484 -46.757,39.006 -47.216,38.679C-47.607,38.401 -48.038,38.159 -48.479,37.971C-49.492,37.545 -50.571,37.339 -51.649,37.161C-52.877,36.96 -54.112,36.792 -55.344,36.615C-55.89,36.537 -55.993,36.582 -56.231,37.084C-56.366,37.369 -56.446,37.681 -56.54,37.984C-56.584,38.127 -56.603,38.277 -56.634,38.429C-57.485,37.999 -57.986,36.899 -57.79,35.912C-57.663,35.277 -57.379,34.707 -56.997,34.188C-56.773,33.883 -56.453,33.707 -56.105,33.581C-55.381,33.316 -54.631,33.235 -53.865,33.263C-53.669,33.27 -53.468,33.27 -53.276,33.237C-52.602,33.116 -52.298,32.613 -52.492,31.963C-52.96,30.394 -54.248,29.38 -55.871,29.301C-55.915,29.299 -55.958,29.287 -56.054,29.271C-55.976,29.141 -55.919,29.023 -55.841,28.92C-55.339,28.263 -54.671,27.822 -53.927,27.489C-53.299,27.207 -52.637,27.049 -51.956,26.952C-51.404,26.871 -50.987,27.062 -50.754,27.558C-50.522,28.051 -50.322,28.562 -50.144,29.078C-49.824,29.999 -49.477,30.902 -48.909,31.708C-48.182,32.74 -47.297,33.603 -46.201,34.239C-46.15,34.269 -46.095,34.292 -46.003,34.337C-46.003,34.19 -45.994,34.079 -46.005,33.968C-46.232,31.778 -46.462,29.587 -46.691,27.397C-46.699,27.337 -46.699,27.275 -46.705,27.214C-46.776,26.59 -46.919,26.005 -47.631,25.743C-47.145,25.12 -46.573,24.687 -45.892,24.404C-44.892,23.984 -43.861,23.907 -42.818,24.234C-41.673,24.591 -41.173,25.562 -41.551,26.703C-41.664,27.045 -41.835,27.375 -42.014,27.69C-42.194,28.004 -42.41,28.301 -42.628,28.592C-43.546,29.83 -43.653,31.155 -43.063,32.556C-42.67,33.487 -42.02,34.222 -41.256,34.867C-39.438,36.397 -37.523,37.795 -35.463,38.977C-33.673,40.007 -31.86,40.998 -30.048,41.989C-29.769,42.143 -29.621,42.331 -29.562,42.637C-29.385,43.533 -29.192,44.421 -29.168,45.339C-29.146,46.219 -29.294,47.063 -29.633,47.874C-29.802,48.28 -29.97,48.688 -30.155,49.087C-30.923,50.735 -30.911,52.411 -30.323,54.099C-30.169,54.541 -29.968,54.971 -29.749,55.386C-29.529,55.802 -29.263,56.191 -28.995,56.628C-29.381,57.044 -29.777,57.472 -30.198,57.923M-47.714,26.786C-47.532,28.649 -47.355,30.427 -47.175,32.272C-48.615,31.002 -49.084,29.291 -49.652,27.583C-49.024,27.326 -48.414,27.074 -47.714,26.786M-30.332,37.762C-30.403,37.736 -30.45,37.73 -30.479,37.704C-32.87,35.582 -32.216,32.536 -30.751,31.187C-30.428,30.89 -30.076,30.624 -29.738,30.341C-29.567,30.197 -29.396,30.047 -29.196,29.877C-28.971,30.382 -28.751,30.879 -28.489,31.465C-28.27,30.809 -28.082,30.244 -27.892,29.675C-27.869,29.679 -27.845,29.683 -27.822,29.687C-27.856,29.984 -27.903,30.281 -27.916,30.58C-27.932,30.882 -27.935,31.189 -27.903,31.49C-27.873,31.806 -27.809,32.12 -27.73,32.428C-27.653,32.721 -27.55,33.007 -27.438,33.29C-27.322,33.585 -27.181,33.871 -27.028,34.207C-28.863,34.707 -29.95,35.91 -30.332,37.762M-28.814,27.303C-28.544,26.78 -28.23,26.278 -27.894,25.794C-27.647,25.436 -27.335,25.12 -27.021,24.75C-26.725,25.361 -26.467,25.889 -26.187,26.47C-26.512,27.013 -26.859,27.594 -27.209,28.175C-27.235,28.164 -27.264,28.151 -27.292,28.137L-27.061,27.63C-27.004,27.505 -26.927,27.387 -26.896,27.257C-26.845,27.045 -26.916,26.867 -27.113,26.755C-27.307,26.647 -27.544,26.682 -27.688,26.865C-27.781,26.979 -27.853,27.119 -27.916,27.255C-28.144,27.749 -28.363,28.245 -28.597,28.767C-28.937,28.297 -29.08,27.81 -28.814,27.303M-27.341,15.47C-27.475,14.608 -27.707,13.784 -28.111,13.008C-28.394,12.468 -28.597,11.897 -28.68,11.289C-28.696,11.17 -28.7,11.051 -28.712,10.914C-28.604,10.898 -28.516,10.87 -28.43,10.875C-26.963,10.966 -25.491,11.016 -24.028,11.168C-22.68,11.308 -21.546,11.927 -20.684,12.997C-20.554,13.159 -20.446,13.338 -20.296,13.557C-20.956,13.681 -21.539,13.772 -22.114,13.901C-24.017,14.331 -25.431,15.405 -26.322,17.152C-26.425,17.353 -26.528,17.554 -26.674,17.838C-26.796,17.57 -26.926,17.372 -26.979,17.156C-27.119,16.599 -27.253,16.038 -27.341,15.47M-17.478,41.489C-16.376,41.676 -15.272,41.676 -14.172,41.442C-13.138,41.221 -12.454,40.622 -11.944,39.676C-11.226,38.349 -10.967,36.907 -10.688,35.466C-10.313,33.513 -9.569,31.719 -8.464,30.072C-7.846,29.153 -7.167,28.279 -6.407,27.418C-6.317,27.538 -6.238,27.625 -6.18,27.724C-5.993,28.036 -5.806,28.348 -5.631,28.668C-4.873,30.053 -4.828,31.469 -5.438,32.92C-5.993,34.239 -6.747,35.42 -7.759,36.435C-8.005,36.681 -8.25,36.931 -8.504,37.171C-9.573,38.191 -10.547,39.295 -11.444,40.465C-11.805,40.936 -12.183,41.393 -12.572,41.838C-13.253,42.619 -14.119,43.051 -15.148,43.141C-15.86,43.204 -16.577,43.209 -17.282,43.068C-17.904,42.942 -18.474,42.692 -18.937,42.252C-19.298,41.906 -19.653,41.546 -19.954,41.148C-21.202,39.496 -22.578,37.96 -24.079,36.533C-25.081,35.578 -25.818,34.436 -26.394,33.178C-27.14,31.552 -27.101,29.974 -26.183,28.431C-25.974,28.082 -25.766,27.733 -25.53,27.344C-23.244,29.879 -21.58,32.637 -21.064,35.991C-20.977,36.559 -20.822,37.117 -20.704,37.683C-20.518,38.573 -20.095,39.366 -19.651,40.142C-19.179,40.969 -18.378,41.337 -17.478,41.489M-13.194,39.601C-13.162,39.868 -13.271,40.05 -13.489,40.163C-13.759,40.298 -14.029,40.455 -14.319,40.518C-15.383,40.752 -16.457,40.742 -17.526,40.528C-17.675,40.5 -17.821,40.453 -17.961,40.396C-18.611,40.129 -18.711,39.965 -18.648,39.264C-18.609,38.827 -18.562,38.388 -18.51,37.952C-18.491,37.795 -18.442,37.638 -18.404,37.48C-18.378,37.478 -18.35,37.478 -18.321,37.478C-18.264,37.787 -18.203,38.095 -18.148,38.405C-18.124,38.539 -18.115,38.676 -18.096,38.809C-18.03,39.3 -17.981,39.349 -17.526,39.205C-16.451,38.862 -15.383,38.864 -14.308,39.212C-13.881,39.349 -13.815,39.278 -13.761,38.836C-13.702,38.394 -13.623,37.956 -13.552,37.516L-13.424,37.516C-13.36,37.939 -13.287,38.36 -13.237,38.783C-13.206,39.054 -13.225,39.331 -13.194,39.601M-14.509,31.908C-15.608,31.116 -16.319,31.112 -17.307,31.917C-17.963,31.531 -18.57,31.74 -19.235,32.112C-19.164,31.817 -19.023,31.644 -18.847,31.531C-18.557,31.343 -18.25,31.167 -17.931,31.041C-17.282,30.787 -16.618,30.573 -15.925,30.328C-15.2,30.587 -14.43,30.858 -13.666,31.142C-13.308,31.278 -12.987,31.482 -12.76,31.806C-12.723,31.86 -12.702,31.928 -12.629,32.081C-13.296,31.736 -13.897,31.571 -14.509,31.908M-17.6,14.369C-15.883,14.359 -14.165,14.39 -12.448,14.451C-11.401,14.488 -10.365,14.644 -9.361,14.978C-8.203,15.36 -7.283,16.049 -6.663,17.099C-5.27,19.453 -4.965,21.939 -5.83,24.545C-6.116,25.406 -6.606,26.15 -7.169,26.859C-7.932,27.824 -8.693,28.792 -9.393,29.801C-10.222,30.994 -10.818,32.308 -11.225,33.705C-11.254,33.804 -11.292,33.898 -11.324,33.997C-11.341,33.995 -11.355,33.991 -11.371,33.987C-11.408,33.518 -11.426,33.048 -11.489,32.585C-11.64,31.505 -12.211,30.728 -13.229,30.315C-13.749,30.104 -14.283,29.927 -14.815,29.749C-15.405,29.549 -15.428,29.539 -15.447,28.925C-15.458,28.564 -15.449,28.202 -15.449,27.807C-14.655,27.617 -13.975,27.218 -13.369,26.707C-13.097,26.479 -12.858,26.186 -12.674,25.881C-12.458,25.522 -12.448,25.12 -12.741,24.776C-13.06,24.404 -13.46,24.219 -13.958,24.337C-14.381,24.437 -14.689,24.707 -14.936,25.043C-15.195,25.398 -15.434,25.77 -15.682,26.133C-15.755,26.245 -15.83,26.355 -15.927,26.497C-16.222,26.056 -16.481,25.628 -16.786,25.235C-16.996,24.962 -17.238,24.693 -17.519,24.502C-18.012,24.167 -18.604,24.258 -19.02,24.669C-19.307,24.949 -19.396,25.28 -19.276,25.668C-19.146,26.092 -18.871,26.412 -18.532,26.68C-17.91,27.175 -17.248,27.6 -16.423,27.797C-16.423,28.283 -16.419,28.765 -16.425,29.247C-16.429,29.456 -16.567,29.576 -16.75,29.643C-16.951,29.715 -17.156,29.771 -17.357,29.843C-17.742,29.978 -18.13,30.112 -18.512,30.258C-19.727,30.721 -20.32,31.638 -20.42,32.9C-20.452,33.276 -20.426,33.658 -20.487,34.056C-20.521,34 -20.57,33.947 -20.585,33.885C-21.146,31.829 -22.193,30.023 -23.48,28.348C-23.878,27.832 -24.297,27.328 -24.714,26.826C-26.1,25.162 -26.63,23.238 -26.481,21.1C-26.406,20.029 -26.134,19.007 -25.707,18.025C-24.898,16.16 -23.49,15.077 -21.499,14.706C-20.208,14.466 -18.904,14.376 -17.6,14.369M-11.296,13.067C-10.447,11.984 -9.325,11.328 -7.976,11.18C-6.466,11.015 -4.946,10.969 -3.429,10.875C-3.371,10.871 -3.313,10.889 -3.211,10.903C-3.221,11.499 -3.337,12.044 -3.595,12.524C-4.251,13.751 -4.548,15.074 -4.745,16.434C-4.811,16.879 -4.935,17.318 -5.223,17.739C-5.298,17.603 -5.362,17.505 -5.411,17.402C-6.371,15.36 -7.992,14.194 -10.192,13.801C-10.642,13.721 -11.091,13.65 -11.603,13.565C-11.493,13.385 -11.408,13.213 -11.296,13.067M-91.88,43.478C-92.074,43.03 -92.254,42.625 -92.249,42.129C-91.864,41.985 -91.539,41.972 -91.237,42.222C-91.45,42.637 -91.655,43.038 -91.88,43.478M-71.173,20.283C-72.366,19.31 -73.441,18.214 -74.444,17.048C-77.038,14.034 -79.86,11.255 -82.997,8.803C-83.115,8.711 -83.236,8.622 -83.386,8.509C-84.266,9.513 -85.341,10.112 -86.686,10.111C-87.634,10.11 -88.508,9.838 -89.297,9.306C-89.279,9.261 -89.277,9.222 -89.257,9.207C-88.138,8.347 -87.602,7.137 -87.241,5.826C-86.994,4.93 -86.857,4.017 -86.808,3.087C-86.775,2.486 -87.01,2.026 -87.461,1.658C-87.928,1.277 -88.472,1.044 -89.034,0.851C-90.216,0.441 -91.444,0.23 -92.673,0.038C-93.694,-0.121 -94.719,-0.246 -95.739,-0.407C-96.027,-0.453 -96.196,-0.356 -96.339,-0.125C-96.574,0.256 -96.716,0.668 -96.787,1.108C-96.806,1.223 -96.844,1.335 -96.875,1.455C-97.79,0.874 -98.223,-0.131 -98.003,-1.142C-97.871,-1.745 -97.599,-2.285 -97.24,-2.783C-96.999,-3.118 -96.649,-3.301 -96.272,-3.434C-95.575,-3.68 -94.853,-3.743 -94.117,-3.726C-93.862,-3.719 -93.596,-3.728 -93.353,-3.794C-92.797,-3.948 -92.558,-4.402 -92.698,-4.96C-93.057,-6.389 -94.336,-7.509 -95.798,-7.673C-95.944,-7.69 -96.09,-7.708 -96.322,-7.736C-96.109,-7.998 -95.959,-8.226 -95.769,-8.411C-94.708,-9.441 -93.411,-9.931 -91.956,-10.04C-91.574,-10.069 -91.26,-9.914 -91.075,-9.583C-90.883,-9.24 -90.718,-8.879 -90.575,-8.513C-90.371,-7.99 -90.218,-7.447 -90.008,-6.926C-89.272,-5.101 -88.045,-3.695 -86.346,-2.703C-86.322,-2.689 -86.289,-2.688 -86.222,-2.672C-86.222,-2.772 -86.214,-2.868 -86.224,-2.961C-86.453,-5.167 -86.684,-7.372 -86.916,-9.578C-86.933,-9.744 -86.957,-9.909 -86.981,-10.074C-87.056,-10.604 -87.284,-11.027 -87.851,-11.247C-87.75,-11.371 -87.676,-11.482 -87.583,-11.574C-86.287,-12.843 -84.755,-13.247 -83.017,-12.739C-81.905,-12.414 -81.405,-11.444 -81.763,-10.345C-81.912,-9.889 -82.169,-9.466 -82.402,-9.042C-82.533,-8.804 -82.712,-8.591 -82.874,-8.371C-83.764,-7.161 -83.873,-5.859 -83.314,-4.49C-82.939,-3.569 -82.311,-2.833 -81.561,-2.193C-79.38,-0.332 -77.025,1.276 -74.523,2.672C-73.104,3.464 -71.681,4.246 -70.249,5.016C-69.999,5.151 -69.846,5.306 -69.805,5.589C-69.675,6.475 -69.499,7.355 -69.41,8.243C-69.313,9.197 -69.53,10.117 -69.903,10.997C-70.058,11.36 -70.208,11.725 -70.375,12.084C-71.154,13.746 -71.133,15.433 -70.543,17.139C-70.237,18.021 -69.787,18.827 -69.2,19.621C-69.6,20.047 -69.981,20.454 -70.387,20.886C-70.671,20.668 -70.928,20.482 -71.173,20.283M-70.578,0.83C-71.489,0.015 -72.093,-0.892 -72.23,-2.044C-72.426,-3.684 -71.908,-5.064 -70.625,-6.132C-70.426,-6.297 -70.218,-6.45 -70.019,-6.613C-69.822,-6.774 -69.631,-6.943 -69.426,-7.118C-69.205,-6.621 -68.979,-6.112 -68.717,-5.522C-68.466,-6.275 -68.244,-6.944 -68.021,-7.613C-68.436,-5.912 -68.065,-4.339 -67.239,-2.784C-69.115,-2.283 -70.177,-1.057 -70.578,0.83M-69.045,-9.681C-68.788,-10.176 -68.498,-10.66 -68.18,-11.12C-67.914,-11.503 -67.586,-11.843 -67.253,-12.242C-66.964,-11.65 -66.7,-11.111 -66.413,-10.524C-66.764,-9.934 -67.135,-9.311 -67.506,-8.687C-67.516,-8.926 -67.395,-9.12 -67.304,-9.322C-67.242,-9.46 -67.158,-9.592 -67.122,-9.736C-67.068,-9.948 -67.146,-10.128 -67.342,-10.239C-67.527,-10.343 -67.784,-10.302 -67.919,-10.124C-68.027,-9.981 -68.113,-9.816 -68.189,-9.651C-68.401,-9.185 -68.603,-8.715 -68.822,-8.215C-69.158,-8.688 -69.312,-9.168 -69.045,-9.681M-67.561,-21.487C-67.704,-22.348 -67.921,-23.177 -68.327,-23.955C-68.601,-24.482 -68.806,-25.038 -68.896,-25.63C-68.917,-25.776 -68.928,-25.925 -68.944,-26.084C-68.854,-26.105 -68.796,-26.131 -68.739,-26.129C-67.13,-26.067 -65.516,-26.058 -63.925,-25.774C-62.698,-25.555 -61.682,-24.951 -60.896,-23.977C-60.773,-23.827 -60.672,-23.658 -60.515,-23.433C-60.738,-23.391 -60.907,-23.361 -61.073,-23.326C-61.682,-23.197 -62.301,-23.103 -62.896,-22.93C-64.39,-22.494 -65.536,-21.591 -66.319,-20.239C-66.509,-19.912 -66.683,-19.576 -66.902,-19.176C-66.993,-19.355 -67.091,-19.485 -67.127,-19.63C-67.284,-20.247 -67.456,-20.861 -67.561,-21.487M-59.106,-22.568C-57.147,-22.622 -55.186,-22.609 -53.227,-22.575C-52.133,-22.556 -51.046,-22.421 -49.982,-22.136C-48.526,-21.747 -47.414,-20.92 -46.703,-19.583C-45.484,-17.298 -45.223,-14.92 -46.054,-12.449C-46.338,-11.604 -46.808,-10.865 -47.364,-10.17C-48.075,-9.281 -48.79,-8.39 -49.445,-7.46C-50.343,-6.186 -51.014,-4.792 -51.449,-3.289C-51.477,-3.193 -51.515,-3.101 -51.546,-3.006C-51.563,-3.01 -51.58,-3.013 -51.596,-3.017C-51.63,-3.447 -51.65,-3.879 -51.7,-4.307C-51.837,-5.465 -52.437,-6.283 -53.53,-6.708C-54.067,-6.917 -54.617,-7.094 -55.162,-7.281C-55.606,-7.435 -55.661,-7.49 -55.678,-7.965C-55.691,-8.357 -55.681,-8.751 -55.681,-9.182C-54.927,-9.362 -54.269,-9.738 -53.676,-10.219C-53.41,-10.435 -53.158,-10.694 -52.968,-10.978C-52.649,-11.456 -52.692,-11.926 -53.02,-12.278C-53.389,-12.675 -53.951,-12.789 -54.437,-12.565C-54.779,-12.408 -55.029,-12.145 -55.244,-11.845C-55.402,-11.622 -55.556,-11.395 -55.706,-11.167C-55.849,-10.955 -55.985,-10.739 -56.148,-10.487C-56.447,-10.932 -56.706,-11.36 -57.009,-11.752C-57.219,-12.025 -57.461,-12.292 -57.742,-12.486C-58.222,-12.817 -58.837,-12.723 -59.246,-12.322C-59.533,-12.04 -59.62,-11.709 -59.502,-11.323C-59.388,-10.946 -59.161,-10.643 -58.864,-10.398C-58.261,-9.905 -57.624,-9.468 -56.861,-9.252C-56.789,-9.233 -56.725,-9.192 -56.643,-9.154C-56.643,-8.711 -56.643,-8.272 -56.642,-7.832C-56.641,-7.568 -56.773,-7.41 -57.021,-7.333C-57.253,-7.262 -57.485,-7.185 -57.713,-7.104C-58.057,-6.983 -58.398,-6.858 -58.739,-6.73C-59.957,-6.27 -60.547,-5.351 -60.646,-4.089C-60.675,-3.718 -60.65,-3.343 -60.735,-2.957C-60.764,-3.019 -60.805,-3.079 -60.823,-3.144C-61.38,-5.152 -62.395,-6.923 -63.65,-8.565C-64.046,-9.084 -64.459,-9.592 -64.881,-10.09C-66.336,-11.809 -66.886,-13.801 -66.698,-16.022C-66.604,-17.14 -66.3,-18.197 -65.82,-19.209C-65.042,-20.848 -63.77,-21.871 -61.996,-22.21C-61.043,-22.393 -60.073,-22.54 -59.106,-22.568M-51.452,-24.006C-50.555,-25.12 -49.36,-25.711 -47.966,-25.852C-46.563,-25.995 -45.149,-26.043 -43.741,-26.13C-43.655,-26.135 -43.564,-26.118 -43.418,-26.107C-43.461,-25.818 -43.473,-25.547 -43.546,-25.294C-43.666,-24.889 -43.783,-24.472 -43.98,-24.101C-44.488,-23.145 -44.721,-22.122 -44.883,-21.064C-44.956,-20.574 -45.116,-20.095 -45.247,-19.613C-45.277,-19.5 -45.353,-19.4 -45.434,-19.241C-45.513,-19.374 -45.571,-19.467 -45.623,-19.563C-45.734,-19.762 -45.84,-19.964 -45.951,-20.162C-46.881,-21.824 -48.334,-22.747 -50.163,-23.133C-50.696,-23.245 -51.234,-23.327 -51.856,-23.437C-51.694,-23.665 -51.582,-23.844 -51.452,-24.006M-44.948,-12.091C-44.475,-11.479 -44.005,-10.866 -43.538,-10.249C-43.467,-10.154 -43.424,-10.036 -43.365,-9.929C-43.063,-9.356 -43.046,-8.798 -43.48,-8.24C-43.527,-8.323 -43.578,-8.403 -43.617,-8.488C-43.818,-8.931 -44.012,-9.376 -44.215,-9.817C-44.266,-9.926 -44.326,-10.035 -44.403,-10.127C-44.55,-10.301 -44.792,-10.339 -44.98,-10.235C-45.174,-10.129 -45.261,-9.911 -45.194,-9.69C-45.182,-9.646 -45.161,-9.605 -45.139,-9.565C-44.54,-8.432 -44.146,-7.22 -43.766,-6.002C-43.729,-5.879 -43.678,-5.76 -43.593,-5.537C-43.351,-6.082 -43.149,-6.533 -42.933,-7.017C-42.8,-6.915 -42.69,-6.842 -42.593,-6.754C-41.724,-5.977 -41.021,-5.074 -40.472,-4.041C-40,-3.153 -39.96,-2.245 -40.262,-1.308C-40.522,-0.492 -41.016,0.175 -41.644,0.747C-41.685,0.785 -41.739,0.805 -41.818,0.852C-42.196,-1.017 -43.239,-2.258 -45.139,-2.775C-45.058,-2.955 -44.988,-3.114 -44.915,-3.271C-44.554,-4.032 -44.3,-4.822 -44.237,-5.667C-44.161,-6.743 -44.414,-7.75 -44.918,-8.692C-45.24,-9.293 -45.597,-9.875 -45.938,-10.461C-45.653,-11.038 -45.375,-11.607 -45.09,-12.192C-45.042,-12.159 -44.982,-12.135 -44.948,-12.091M-43.099,3.716C-43.322,4.816 -43.603,5.904 -43.81,7.007C-44.103,8.568 -43.928,10.085 -43.284,11.55C-42.977,12.256 -42.642,12.971 -42.475,13.717C-42.15,15.168 -42.483,16.546 -43.196,17.838C-43.202,17.848 -43.221,17.849 -43.245,17.861C-43.546,17.12 -43.796,16.368 -44.149,15.666C-44.501,14.963 -44.897,14.268 -45.379,13.65C-45.828,13.075 -46.001,12.449 -46.063,11.764C-46.137,10.967 -46.02,10.188 -45.815,9.42C-45.574,8.524 -45.375,7.622 -45.332,6.691C-45.23,4.481 -45.821,2.458 -46.994,0.595C-47.081,0.455 -47.171,0.316 -47.253,0.186C-46.701,-0.502 -46.161,-1.174 -45.586,-1.89C-44.889,-1.794 -44.243,-1.489 -43.719,-0.953C-43.012,-0.23 -42.674,0.656 -42.753,1.656C-42.807,2.348 -42.957,3.034 -43.099,3.716M-45.877,17.318C-46.101,18.629 -46.546,19.869 -47.114,21.066C-47.127,21.092 -47.158,21.108 -47.205,21.153C-47.25,21.04 -47.291,20.937 -47.331,20.834C-47.688,19.914 -48.04,18.993 -48.408,18.079C-48.485,17.887 -48.528,17.72 -48.462,17.515C-48.002,16.075 -48.263,14.726 -48.998,13.442C-49.172,13.138 -49.332,12.826 -49.52,12.532C-50.25,11.391 -50.385,10.162 -50.117,8.855C-49.918,7.889 -49.74,6.918 -49.591,5.943C-49.452,5.039 -49.479,4.126 -49.583,3.216C-49.601,3.066 -49.629,2.913 -49.622,2.763C-49.616,2.651 -49.59,2.512 -49.519,2.434C-49.028,1.9 -48.522,1.38 -47.978,0.809C-47.06,2.187 -46.511,3.599 -46.323,5.153C-46.17,6.41 -46.329,7.634 -46.633,8.853C-46.787,9.47 -46.898,10.1 -46.988,10.73C-47.135,11.779 -46.913,12.782 -46.537,13.758C-46.351,14.24 -46.159,14.718 -45.977,15.203C-45.716,15.896 -45.757,16.607 -45.877,17.318M-49.267,16.86C-49.72,18.548 -50.046,20.263 -50.342,21.984C-50.365,22.11 -50.411,22.232 -50.475,22.458C-50.654,21.74 -50.715,21.123 -50.683,20.499C-50.661,20.088 -50.64,19.677 -50.585,19.271C-50.396,17.861 -50.777,16.593 -51.545,15.426C-52.051,14.657 -52.721,14.038 -53.415,13.442C-53.669,13.226 -53.919,13.003 -54.151,12.763C-54.505,12.397 -54.635,11.956 -54.475,11.462C-54.334,11.03 -54.195,10.593 -54.004,10.183C-53.521,9.141 -53.433,8.085 -53.799,6.993C-53.818,6.938 -53.822,6.878 -53.843,6.772C-52.35,6.192 -51.528,4.879 -50.497,3.611C-50.472,3.861 -50.451,4.001 -50.446,4.14C-50.386,5.365 -50.602,6.559 -50.837,7.754C-50.98,8.482 -51.099,9.218 -51.168,9.956C-51.251,10.856 -51.013,11.705 -50.598,12.501C-50.408,12.864 -50.19,13.212 -50,13.575C-49.796,13.965 -49.593,14.357 -49.424,14.762C-49.14,15.44 -49.076,16.148 -49.267,16.86M-55.367,17.534C-55.664,17.932 -55.914,18.367 -56.205,18.812C-56.646,18.109 -57.122,17.447 -57.499,16.731C-57.902,15.969 -58.006,15.116 -57.986,14.255C-57.979,13.96 -57.879,13.707 -57.653,13.488C-56.941,12.796 -56.743,11.967 -57.072,11.028C-57.252,10.513 -57.448,10.003 -57.655,9.497C-57.99,8.68 -57.949,7.878 -57.631,7.096L-54.767,7.096C-54.496,7.692 -54.441,8.356 -54.595,9.036C-54.656,9.3 -54.78,9.548 -54.874,9.805C-55.042,10.275 -55.229,10.74 -55.371,11.218C-55.609,12.026 -55.456,12.776 -54.847,13.36C-54.459,13.733 -54.393,14.157 -54.414,14.64C-54.461,15.694 -54.726,16.67 -55.367,17.534M-59.199,13.636C-59.623,14.048 -60.065,14.448 -60.446,14.899C-61.561,16.221 -62.02,17.747 -61.8,19.476C-61.69,20.337 -61.662,21.202 -61.829,22.063C-61.845,22.144 -61.877,22.221 -61.988,22.297C-62.079,21.817 -62.162,21.332 -62.263,20.852C-62.526,19.605 -62.771,18.353 -63.076,17.116C-63.316,16.139 -63.242,15.219 -62.792,14.327C-62.601,13.948 -62.413,13.563 -62.181,13.209C-61.195,11.705 -61.007,10.088 -61.417,8.361C-61.706,7.135 -61.969,5.899 -61.945,4.626C-61.94,4.33 -61.926,4.033 -61.873,3.719C-60.866,4.858 -60.062,6.187 -58.545,6.769C-58.62,7.067 -58.686,7.3 -58.736,7.536C-58.916,8.364 -58.821,9.165 -58.486,9.942C-58.311,10.345 -58.157,10.758 -57.997,11.168C-57.714,11.896 -57.885,12.505 -58.478,13.006C-58.721,13.213 -58.969,13.415 -59.199,13.636M-63.949,17.457C-63.896,17.624 -63.843,17.795 -63.94,17.983C-64.463,18.981 -64.832,20.042 -65.171,21.171C-65.248,21.07 -65.311,21.013 -65.343,20.94C-65.877,19.761 -66.319,18.552 -66.522,17.267C-66.654,16.427 -66.619,15.613 -66.273,14.812C-65.936,14.033 -65.617,13.245 -65.467,12.399C-65.286,11.378 -65.396,10.375 -65.623,9.373C-65.785,8.665 -65.976,7.956 -66.063,7.235C-66.343,4.921 -65.745,2.815 -64.42,0.807C-63.876,1.375 -63.367,1.894 -62.876,2.43C-62.797,2.515 -62.749,2.682 -62.767,2.797C-63.078,4.758 -62.758,6.668 -62.348,8.578C-62.218,9.181 -62.181,9.81 -62.167,10.429C-62.153,11.064 -62.39,11.649 -62.694,12.202C-62.943,12.654 -63.203,13.1 -63.453,13.552C-64.139,14.787 -64.38,16.078 -63.949,17.457M-58.159,4.388C-56.841,4.714 -55.509,4.713 -54.189,4.396C-53.264,4.172 -52.661,3.576 -52.196,2.734C-51.448,1.384 -51.193,-0.091 -50.907,-1.563C-50.536,-3.469 -49.815,-5.222 -48.745,-6.837C-48.113,-7.788 -47.412,-8.682 -46.645,-9.572C-46.563,-9.474 -46.486,-9.404 -46.438,-9.32C-46.203,-8.913 -45.956,-8.51 -45.746,-8.09C-45.131,-6.87 -45.08,-5.614 -45.563,-4.339C-46.092,-2.943 -46.864,-1.699 -47.914,-0.632C-48.179,-0.361 -48.446,-0.091 -48.72,0.172C-49.791,1.191 -50.769,2.29 -51.663,3.466C-51.948,3.841 -52.255,4.198 -52.546,4.569C-53.413,5.679 -54.566,6.189 -55.955,6.19C-56.395,6.19 -56.837,6.171 -57.272,6.115C-58.096,6.008 -58.814,5.657 -59.392,5.055C-59.727,4.705 -60.053,4.341 -60.346,3.955C-61.484,2.447 -62.73,1.038 -64.106,-0.256C-65.194,-1.278 -66.024,-2.481 -66.637,-3.845C-67.354,-5.442 -67.324,-6.993 -66.438,-8.514C-66.225,-8.878 -66.005,-9.24 -65.755,-9.66C-63.764,-7.382 -62.135,-4.991 -61.512,-2.039C-61.317,-1.118 -61.119,-0.199 -60.923,0.722C-60.733,1.611 -60.3,2.399 -59.859,3.177C-59.486,3.833 -58.875,4.212 -58.159,4.388M-53.422,2.69C-53.402,2.881 -53.493,3.004 -53.633,3.114C-53.965,3.376 -54.349,3.516 -54.758,3.581C-55.694,3.73 -56.634,3.729 -57.571,3.581C-57.98,3.515 -58.37,3.378 -58.689,3.105C-58.784,3.023 -58.892,2.886 -58.89,2.777C-58.875,2.004 -58.83,1.233 -58.632,0.482C-58.597,0.487 -58.563,0.491 -58.529,0.496C-58.46,0.945 -58.389,1.393 -58.324,1.841C-58.254,2.324 -58.227,2.36 -57.785,2.217C-56.692,1.862 -55.608,1.864 -54.516,2.218C-54.089,2.358 -54.04,2.296 -53.984,1.837C-53.932,1.404 -53.853,0.974 -53.708,0.532C-53.677,0.602 -53.626,0.671 -53.618,0.744C-53.549,1.392 -53.489,2.042 -53.422,2.69M-54.737,-5.073C-55.646,-5.897 -56.758,-5.826 -57.521,-5.086C-58.234,-5.373 -58.414,-5.357 -59.466,-4.909C-59.372,-5.201 -59.208,-5.394 -58.999,-5.521C-58.701,-5.7 -58.389,-5.863 -58.067,-5.986C-57.444,-6.225 -56.811,-6.431 -56.143,-6.663C-55.406,-6.395 -54.625,-6.114 -53.847,-5.824C-53.499,-5.695 -53.201,-5.489 -52.983,-5.182C-52.941,-5.125 -52.914,-5.058 -52.833,-4.904C-53.512,-5.235 -54.121,-5.448 -54.737,-5.073M-68.992,17.519C-69.032,17.643 -69.083,17.763 -69.158,17.966C-70.012,16.262 -70.363,14.602 -69.673,12.842C-69.529,12.475 -69.376,12.11 -69.204,11.755C-68.409,10.116 -68.289,8.4 -68.644,6.642C-68.883,5.453 -69.184,4.276 -69.448,3.091C-69.617,2.334 -69.748,1.575 -69.595,0.792C-69.317,-0.634 -68.187,-1.724 -66.796,-1.877C-66.248,-1.194 -65.7,-0.511 -65.142,0.185C-65.221,0.311 -65.308,0.452 -65.398,0.593C-66.689,2.624 -67.26,4.835 -67.015,7.233C-66.949,7.879 -66.777,8.514 -66.65,9.154C-66.554,9.645 -66.437,10.132 -66.355,10.626C-66.225,11.42 -66.328,12.2 -66.579,12.961C-66.622,13.086 -66.691,13.211 -66.776,13.314C-67.8,14.565 -68.505,15.984 -68.992,17.519M-67.509,17.792C-67.739,18.05 -67.977,18.298 -68.211,18.552C-68.238,18.54 -68.266,18.526 -68.292,18.513C-68.124,17.849 -67.926,17.199 -67.548,16.588C-67.504,16.924 -67.454,17.259 -67.42,17.597C-67.415,17.66 -67.463,17.741 -67.509,17.792M1.316,33.77C1.347,33.678 1.357,33.619 1.384,33.568C1.926,32.545 2.012,31.445 1.886,30.328C1.66,28.334 0.938,26.505 -0.062,24.778C-0.108,24.699 -0.153,24.62 -0.216,24.552C-0.38,24.37 -0.592,24.333 -0.789,24.439C-1.002,24.556 -1.085,24.78 -0.992,25.028C-0.957,25.126 -0.893,25.214 -0.838,25.304C-0.216,26.374 0.268,27.504 0.597,28.694C0.896,29.769 1.099,30.858 0.914,31.979C0.878,32.209 0.809,32.432 0.753,32.658C-0.053,31.244 -1.047,30.053 -2.269,29.094C-2.269,29.021 -2.276,28.988 -2.267,28.962C-2.244,28.889 -2.218,28.818 -2.183,28.751C-1.888,28.166 -1.91,27.568 -2.167,26.989C-2.35,26.574 -2.551,26.154 -2.82,25.794C-3.307,25.135 -3.845,24.512 -4.379,23.892C-4.523,23.725 -4.557,23.577 -4.538,23.362C-4.477,22.653 -4.442,21.941 -4.399,21.23C-4.394,21.134 -4.399,21.038 -4.399,20.867C-3.559,21.462 -2.809,22.021 -2.218,22.77C-1.844,23.248 -1.799,23.752 -2.041,24.347C-2.162,24.185 -2.256,24.054 -2.357,23.926C-2.668,23.533 -2.967,23.13 -3.299,22.754C-3.491,22.539 -3.76,22.547 -3.95,22.721C-4.138,22.89 -4.156,23.14 -3.979,23.376C-3.805,23.603 -3.597,23.809 -3.437,24.048C-2.882,24.883 -2.343,25.729 -1.793,26.566C-1.72,26.68 -1.691,26.851 -1.494,26.881C-1.331,25.964 -1.199,25.064 -1,24.178C-0.831,23.409 -1.015,22.746 -1.508,22.185C-1.968,21.665 -2.481,21.181 -3.012,20.732C-3.45,20.361 -3.95,20.062 -4.422,19.731C-4.655,19.568 -4.867,19.028 -4.755,18.82C-4.491,18.327 -4.213,17.842 -3.92,17.323C-3.357,17.615 -2.799,17.95 -2.311,18.385C-2.096,18.575 -1.906,18.798 -1.74,19.03C-1.562,19.278 -1.5,19.564 -1.614,19.92C-1.746,19.779 -1.846,19.671 -1.949,19.564C-2.148,19.357 -2.341,19.139 -2.553,18.944C-2.786,18.733 -3.064,18.737 -3.247,18.926C-3.433,19.119 -3.427,19.381 -3.196,19.611C-2.335,20.46 -1.641,21.437 -0.936,22.411C-0.862,22.51 -0.774,22.598 -0.639,22.756C-0.639,21.547 -0.62,20.44 -0.652,19.333C-0.659,19.062 -0.793,18.767 -0.947,18.534C-1.154,18.223 -1.404,17.918 -1.697,17.688C-2.211,17.29 -2.771,16.947 -3.314,16.586C-3.45,16.494 -3.597,16.42 -3.727,16.345C-3.701,15.454 -3.418,14.386 -3.053,13.593C-2.813,13.07 -2.607,12.53 -2.425,11.985C-2.264,11.505 -2.229,11.001 -2.292,10.497C-2.346,10.08 -2.506,9.942 -2.918,9.927C-3.04,9.922 -3.16,9.924 -3.282,9.931C-4.692,10.006 -6.108,10.039 -7.515,10.168C-9.776,10.376 -11.564,11.364 -12.621,13.462L-19.282,13.462C-19.491,13.127 -19.668,12.771 -19.912,12.465C-20.816,11.331 -21.977,10.571 -23.415,10.336C-24.478,10.162 -25.555,10.08 -26.628,9.998C-27.401,9.938 -28.178,9.935 -28.952,9.926C-29.422,9.921 -29.595,10.074 -29.627,10.538C-29.647,10.868 -29.639,11.208 -29.592,11.536C-29.482,12.28 -29.196,12.968 -28.854,13.632C-28.412,14.485 -28.283,15.414 -28.164,16.365C-28.392,16.494 -28.601,16.61 -28.81,16.733C-29.441,17.103 -30.046,17.505 -30.55,18.044C-31.007,18.53 -31.261,19.087 -31.244,19.771C-31.224,20.606 -31.24,21.442 -31.238,22.279C-31.238,22.411 -31.222,22.541 -31.206,22.764C-31.062,22.58 -30.97,22.469 -30.881,22.352C-30.396,21.712 -29.919,21.063 -29.418,20.433C-29.184,20.135 -28.899,19.878 -28.646,19.594C-28.438,19.361 -28.43,19.137 -28.603,18.94C-28.775,18.745 -29.064,18.725 -29.294,18.934C-29.541,19.158 -29.759,19.414 -29.992,19.654C-30.069,19.733 -30.155,19.806 -30.259,19.903C-30.31,19.357 -30.283,19.205 -30.021,18.874C-29.473,18.178 -28.725,17.755 -27.977,17.337C-27.733,17.792 -27.53,18.214 -27.29,18.615C-26.993,19.105 -27.057,19.479 -27.536,19.795C-28.353,20.328 -29.157,20.878 -29.832,21.587C-30.145,21.915 -30.417,22.285 -30.667,22.663C-30.917,23.043 -30.979,23.482 -30.9,23.933C-30.744,24.815 -30.586,25.697 -30.426,26.579C-30.405,26.686 -30.366,26.788 -30.317,26.953C-30.193,26.759 -30.108,26.635 -30.031,26.507C-29.396,25.434 -28.749,24.372 -27.926,23.426C-27.886,23.38 -27.849,23.332 -27.82,23.279C-27.713,23.08 -27.743,22.892 -27.899,22.738C-28.058,22.58 -28.253,22.555 -28.442,22.663C-28.546,22.719 -28.637,22.811 -28.712,22.903C-29.02,23.298 -29.32,23.701 -29.625,24.097C-29.686,24.172 -29.755,24.24 -29.832,24.323C-30.122,23.654 -29.964,23.106 -29.521,22.616C-29.379,22.458 -29.245,22.289 -29.084,22.153C-28.642,21.781 -28.19,21.421 -27.737,21.064C-27.664,21.006 -27.566,20.98 -27.51,20.954C-27.45,21.781 -27.41,22.584 -27.326,23.38C-27.302,23.606 -27.354,23.744 -27.493,23.904C-27.999,24.49 -28.518,25.067 -28.975,25.692C-29.277,26.103 -29.509,26.575 -29.718,27.044C-29.97,27.609 -29.971,28.192 -29.676,28.76C-29.588,28.929 -29.525,29.112 -29.456,29.279C-29.67,29.318 -29.877,29.303 -30.009,29.393C-31.031,30.098 -31.979,30.876 -32.496,32.056C-32.539,32.154 -32.605,32.24 -32.695,32.392C-32.872,31.648 -32.874,30.98 -32.788,30.315C-32.557,28.542 -31.927,26.908 -31.054,25.357C-30.996,25.252 -30.925,25.152 -30.876,25.041C-30.767,24.793 -30.832,24.589 -31.053,24.453C-31.242,24.335 -31.474,24.357 -31.632,24.534C-31.722,24.631 -31.799,24.752 -31.855,24.874C-32.256,25.725 -32.685,26.566 -33.036,27.436C-33.461,28.497 -33.719,29.608 -33.772,30.756C-33.827,31.841 -33.677,32.876 -33.105,33.827C-33.019,33.97 -33.008,34.171 -33.004,34.346C-32.989,35.459 -32.671,36.468 -32.024,37.377C-31.633,37.925 -31.159,38.392 -30.633,38.811C-30.529,38.894 -30.391,38.99 -30.366,39.101C-30.236,39.687 -30.139,40.28 -30.021,40.92C-30.178,40.847 -30.289,40.802 -30.393,40.746C-31.366,40.215 -32.338,39.683 -33.311,39.15C-35.926,37.71 -38.405,36.07 -40.679,34.126C-41.299,33.595 -41.835,33.005 -42.177,32.255C-42.476,31.601 -42.591,30.924 -42.404,30.215C-42.292,29.779 -42.066,29.407 -41.799,29.049C-41.314,28.405 -40.878,27.728 -40.638,26.948C-40.38,26.105 -40.423,25.298 -40.906,24.539C-40.943,24.479 -40.965,24.408 -40.998,24.321C-38.159,23.368 -35.304,22.565 -32.372,21.972C-32.425,21.653 -32.468,21.388 -32.515,21.102C-32.643,21.11 -32.75,21.102 -32.85,21.123C-33.575,21.281 -34.303,21.437 -35.027,21.608C-37.214,22.128 -39.364,22.781 -41.496,23.488C-41.721,23.561 -41.912,23.586 -42.15,23.496C-44.05,22.774 -45.819,23.048 -47.447,24.252C-48.09,24.727 -48.575,25.347 -48.991,26.03C-49.082,26.178 -49.203,26.335 -49.35,26.42C-49.594,26.56 -49.87,26.645 -50.148,26.761C-50.636,26.113 -51.284,25.938 -52.027,26.026C-53.46,26.199 -54.771,26.678 -55.89,27.615C-56.596,28.206 -57.102,28.939 -57.301,29.846C-57.368,30.149 -57.537,30.307 -57.792,30.445C-59.532,31.386 -61.344,32.161 -63.223,32.782C-65.398,33.502 -67.572,34.227 -69.747,34.953C-69.902,35.004 -70.053,35.072 -70.21,35.131C-70.204,35.239 -70.21,35.316 -70.196,35.387C-70.032,36.188 -70.215,36.931 -70.61,37.623C-71.217,38.685 -72.135,39.378 -73.282,39.776C-73.453,39.835 -73.638,39.866 -73.817,39.872C-74.276,39.883 -74.608,39.607 -74.774,39.106C-74.917,38.679 -74.899,38.638 -74.406,38.258C-74.357,38.223 -74.311,38.181 -74.26,38.149C-73.617,37.747 -72.971,37.346 -72.329,36.94C-72.252,36.893 -72.193,36.82 -72.118,36.751C-72.764,36.751 -73.375,36.702 -73.974,36.762C-74.932,36.86 -75.834,37.204 -76.718,37.569C-78.828,38.433 -80.729,39.658 -82.538,41.03C-83.484,41.748 -84.347,42.556 -85.1,43.483C-85.889,44.454 -86.797,45.309 -87.847,45.999C-88.101,46.167 -88.195,46.392 -88.136,46.657C-88.079,46.904 -87.959,47.138 -87.849,47.368C-87.785,47.502 -87.684,47.616 -87.598,47.74C-88.457,48.221 -89.201,48.129 -89.837,47.453C-90.354,46.902 -90.732,46.26 -90.934,45.531C-91.263,44.344 -90.986,43.308 -90.107,42.442C-90.032,42.367 -89.938,42.314 -89.784,42.201C-90.055,41.961 -90.259,41.757 -90.483,41.581C-91.026,41.158 -91.623,40.967 -92.316,41.156C-92.934,41.323 -93.23,41.705 -93.197,42.351C-93.191,42.477 -93.181,42.603 -93.171,42.755C-93.74,42.633 -94.077,42.295 -94.28,41.835C-94.517,41.292 -94.722,40.735 -94.925,40.18C-95.203,39.417 -95.1,38.941 -94.455,38.449C-94.025,38.122 -93.545,37.832 -93.044,37.632C-92.341,37.354 -91.606,37.149 -90.873,36.963C-89.902,36.714 -89.458,36.192 -89.443,35.19C-89.435,34.603 -89.569,34.045 -89.771,33.5C-90,32.883 -90.53,32.601 -91.186,32.74C-91.329,32.77 -91.47,32.808 -91.643,32.847C-91.637,32.761 -91.647,32.701 -91.629,32.65C-91.116,31.152 -90.072,30.185 -88.61,29.642C-88.287,29.521 -87.993,29.629 -87.776,29.86C-87.551,30.1 -87.344,30.372 -87.187,30.661C-86.805,31.36 -86.61,32.126 -86.453,32.904C-86.376,33.29 -86.321,33.688 -86.183,34.052C-85.914,34.757 -85.382,35.135 -84.612,35.154C-84.177,35.168 -83.771,35.06 -83.374,34.895C-82.708,34.615 -82.107,34.229 -81.567,33.759C-80.938,33.211 -80.309,32.654 -79.731,32.054C-76.656,28.852 -73.598,25.635 -70.534,22.425C-70.379,22.264 -70.249,22.086 -69.985,22.057C-69.794,22.037 -69.698,21.871 -69.648,21.673C-69.61,21.521 -69.532,21.364 -69.429,21.249C-68.764,20.517 -68.088,19.795 -67.414,19.074C-67.339,18.995 -67.249,18.928 -67.144,18.838C-67.094,18.981 -67.057,19.079 -67.025,19.18C-66.689,20.239 -66.264,21.262 -65.743,22.244C-65.643,22.431 -65.533,22.614 -65.417,22.793C-65.31,22.96 -65.15,23.037 -64.949,23.008C-64.748,22.978 -64.625,22.854 -64.567,22.665C-64.538,22.563 -64.52,22.458 -64.488,22.354C-64.237,21.512 -63.988,20.668 -63.731,19.828C-63.688,19.688 -63.611,19.558 -63.551,19.425C-63.349,20.1 -63.228,20.767 -63.109,21.437C-62.952,22.321 -62.788,23.201 -62.433,24.033C-62.344,24.242 -62.22,24.408 -61.975,24.419C-61.708,24.43 -61.566,24.262 -61.469,24.035C-61.145,23.278 -60.917,22.496 -60.818,21.673C-60.718,20.834 -60.82,20.004 -60.874,19.171C-60.901,18.75 -60.916,18.318 -60.854,17.902C-60.677,16.712 -60.053,15.754 -59.209,14.924C-59.14,14.856 -59.053,14.805 -58.974,14.746C-58.946,14.789 -58.934,14.799 -58.931,14.812C-58.922,14.872 -58.914,14.931 -58.907,14.992C-58.797,16.133 -58.468,17.192 -57.763,18.117C-57.598,18.333 -57.448,18.564 -57.311,18.8C-56.875,19.551 -56.622,20.35 -56.703,21.234C-56.717,21.386 -56.722,21.541 -56.699,21.689C-56.66,21.958 -56.461,22.106 -56.186,22.102C-55.903,22.096 -55.732,21.948 -55.707,21.661C-55.693,21.495 -55.699,21.326 -55.712,21.161C-55.753,20.602 -55.667,20.057 -55.439,19.558C-55.201,19.038 -54.913,18.53 -54.585,18.06C-54.055,17.295 -53.702,16.469 -53.561,15.553C-53.521,15.288 -53.488,15.022 -53.444,14.703C-52.937,15.125 -52.559,15.575 -52.242,16.075C-51.743,16.862 -51.452,17.716 -51.488,18.66C-51.504,19.07 -51.546,19.478 -51.585,19.885C-51.718,21.29 -51.528,22.644 -50.969,23.943C-50.865,24.189 -50.752,24.426 -50.432,24.419C-50.11,24.411 -50.006,24.163 -49.917,23.915C-49.805,23.601 -49.678,23.289 -49.61,22.963C-49.385,21.878 -49.185,20.788 -48.971,19.7C-48.954,19.611 -48.907,19.528 -48.849,19.377C-48.776,19.547 -48.728,19.643 -48.697,19.743C-48.425,20.641 -48.146,21.541 -47.887,22.445C-47.812,22.702 -47.761,22.96 -47.445,23.008C-47.129,23.055 -46.985,22.832 -46.855,22.6C-46.765,22.443 -46.665,22.289 -46.592,22.121C-46.257,21.373 -45.905,20.632 -45.608,19.869C-45.196,18.808 -44.938,17.705 -44.843,16.452C-44.734,16.667 -44.659,16.778 -44.621,16.898C-44.422,17.519 -44.23,18.143 -44.042,18.767C-43.985,18.957 -43.969,19.158 -43.899,19.34C-43.768,19.684 -43.388,19.759 -43.125,19.504C-43.061,19.442 -43.008,19.365 -42.957,19.29C-42.41,18.495 -41.981,17.643 -41.713,16.716C-41.262,15.156 -41.303,13.627 -41.997,12.136C-42.162,11.778 -42.318,11.414 -42.471,11.05C-42.766,10.344 -42.961,9.617 -42.991,8.846C-43.03,7.818 -42.859,6.817 -42.636,5.822C-42.396,4.756 -42.111,3.699 -41.908,2.626C-41.835,2.234 -41.683,1.985 -41.378,1.743C-40.132,0.749 -39.306,-0.505 -39.128,-2.129C-39.122,-2.17 -39.098,-2.21 -39.071,-2.275C-38.939,-2.256 -38.804,-2.244 -38.675,-2.217C-34.896,-1.413 -31.08,-0.856 -27.243,-0.445C-24.567,-0.159 -21.883,0.013 -19.192,0.077C-17.154,0.124 -15.12,0.055 -13.087,-0.083C-12.89,-0.096 -12.692,-0.117 -12.499,-0.15C-12.221,-0.197 -12.048,-0.405 -12.072,-0.649C-12.095,-0.899 -12.284,-1.059 -12.58,-1.064C-12.7,-1.067 -12.822,-1.052 -12.944,-1.044C-13.58,-0.997 -14.216,-0.932 -14.853,-0.907C-18.321,-0.768 -21.785,-0.862 -25.237,-1.194C-27.459,-1.408 -29.68,-1.659 -31.889,-1.985C-34.14,-2.318 -36.375,-2.763 -38.618,-3.162C-38.714,-3.18 -38.806,-3.229 -38.903,-3.266C-38.242,-4.629 -38.222,-5.589 -38.348,-6.708C-38.569,-8.671 -39.287,-10.469 -40.263,-12.172C-40.311,-12.251 -40.354,-12.332 -40.412,-12.403C-40.59,-12.622 -40.842,-12.669 -41.057,-12.528C-41.25,-12.401 -41.309,-12.17 -41.201,-11.921C-41.166,-11.838 -41.109,-11.764 -41.063,-11.685C-40.487,-10.696 -40.03,-9.654 -39.703,-8.559C-39.362,-7.416 -39.124,-6.257 -39.305,-5.056C-39.342,-4.81 -39.411,-4.569 -39.464,-4.326C-40.276,-5.752 -41.286,-6.95 -42.532,-7.928C-42.479,-8.063 -42.451,-8.151 -42.412,-8.232C-42.117,-8.815 -42.132,-9.414 -42.392,-9.993C-42.589,-10.434 -42.805,-10.879 -43.091,-11.266C-43.548,-11.889 -44.06,-12.475 -44.57,-13.055C-44.74,-13.247 -44.783,-13.417 -44.761,-13.666C-44.694,-14.359 -44.666,-15.057 -44.627,-15.753C-44.621,-15.85 -44.625,-15.947 -44.625,-16.125C-43.804,-15.541 -43.057,-15.001 -42.483,-14.26C-42.373,-14.118 -42.276,-13.959 -42.203,-13.794C-42.032,-13.417 -42.111,-13.053 -42.276,-12.649C-42.357,-12.755 -42.404,-12.814 -42.45,-12.874C-42.794,-13.317 -43.127,-13.772 -43.487,-14.201C-43.688,-14.44 -43.977,-14.447 -44.174,-14.273C-44.371,-14.097 -44.39,-13.826 -44.18,-13.584C-43.326,-12.604 -42.658,-11.498 -41.998,-10.388C-41.94,-10.29 -41.865,-10.202 -41.76,-10.054C-41.721,-10.184 -41.696,-10.25 -41.683,-10.319C-41.52,-11.245 -41.365,-12.173 -41.188,-13.097C-41.13,-13.41 -41.146,-13.713 -41.272,-13.989C-41.423,-14.317 -41.593,-14.655 -41.827,-14.922C-42.207,-15.353 -42.625,-15.76 -43.07,-16.123C-43.574,-16.535 -44.127,-16.888 -44.661,-17.265C-44.896,-17.432 -45.09,-17.969 -44.975,-18.183C-44.71,-18.674 -44.434,-19.159 -44.135,-19.696C-43.676,-19.394 -43.192,-19.108 -42.747,-18.773C-42.473,-18.565 -42.231,-18.302 -42.014,-18.033C-41.803,-17.771 -41.719,-17.455 -41.835,-17.06C-41.967,-17.202 -42.066,-17.31 -42.168,-17.417C-42.367,-17.626 -42.559,-17.844 -42.771,-18.039C-43.016,-18.261 -43.268,-18.263 -43.461,-18.076C-43.662,-17.88 -43.651,-17.602 -43.403,-17.357C-42.574,-16.543 -41.902,-15.602 -41.226,-14.666C-41.132,-14.537 -41.03,-14.414 -40.874,-14.215C-40.865,-14.441 -40.854,-14.572 -40.854,-14.701C-40.852,-15.492 -40.888,-16.284 -40.844,-17.072C-40.797,-17.939 -41.145,-18.6 -41.754,-19.165C-42.294,-19.665 -42.906,-20.055 -43.548,-20.409C-43.69,-20.487 -43.832,-20.57 -43.98,-20.654C-43.856,-21.59 -43.725,-22.488 -43.313,-23.321C-43.132,-23.688 -42.961,-24.062 -42.818,-24.446C-42.589,-25.062 -42.45,-25.7 -42.504,-26.365C-42.548,-26.914 -42.702,-27.079 -43.237,-27.058C-44.666,-27.001 -46.093,-26.943 -47.517,-26.848C-48.06,-26.811 -48.607,-26.713 -49.131,-26.568C-50.813,-26.104 -52.073,-25.104 -52.838,-23.539L-59.489,-23.539C-59.763,-23.941 -59.995,-24.352 -60.294,-24.709C-61.208,-25.798 -62.386,-26.459 -63.785,-26.694C-65.604,-27.001 -67.443,-27.042 -69.283,-27.059C-69.636,-27.062 -69.815,-26.905 -69.841,-26.533C-69.867,-26.157 -69.86,-25.771 -69.807,-25.399C-69.704,-24.686 -69.427,-24.025 -69.096,-23.39C-68.646,-22.523 -68.513,-21.58 -68.391,-20.626C-68.664,-20.471 -68.915,-20.333 -69.161,-20.185C-69.775,-19.816 -70.363,-19.413 -70.844,-18.873C-71.268,-18.399 -71.488,-17.857 -71.477,-17.213C-71.462,-16.332 -71.475,-15.45 -71.471,-14.569C-71.471,-14.479 -71.443,-14.39 -71.416,-14.227C-71.313,-14.364 -71.258,-14.435 -71.205,-14.507C-70.482,-15.503 -69.78,-16.516 -68.891,-17.378C-68.848,-17.42 -68.805,-17.467 -68.777,-17.519C-68.672,-17.716 -68.693,-17.906 -68.848,-18.064C-69.001,-18.222 -69.193,-18.267 -69.386,-18.151C-69.515,-18.075 -69.627,-17.966 -69.732,-17.858C-69.973,-17.612 -70.205,-17.357 -70.454,-17.091C-70.559,-17.592 -70.523,-17.79 -70.213,-18.163C-69.661,-18.829 -68.934,-19.257 -68.205,-19.645C-67.946,-19.169 -67.726,-18.72 -67.461,-18.297C-67.333,-18.095 -67.316,-17.932 -67.372,-17.706C-67.428,-17.479 -67.532,-17.33 -67.728,-17.213C-67.975,-17.065 -68.214,-16.901 -68.449,-16.734C-69.206,-16.195 -69.936,-15.625 -70.526,-14.898C-71.043,-14.26 -71.304,-13.563 -71.063,-12.738C-71.034,-12.639 -71.023,-12.534 -71.004,-12.431C-71.002,-12.431 -71,-12.432 -70.998,-12.433C-70.999,-12.427 -71.001,-12.423 -71.001,-12.418C-70.866,-11.646 -70.731,-10.872 -70.584,-10.03C-70.479,-10.164 -70.409,-10.235 -70.359,-10.319C-69.684,-11.454 -69.005,-12.586 -68.135,-13.59C-67.92,-13.838 -67.94,-14.095 -68.147,-14.276C-68.349,-14.453 -68.62,-14.442 -68.831,-14.197C-69.158,-13.819 -69.456,-13.415 -69.764,-13.021C-69.854,-12.908 -69.939,-12.792 -70.043,-12.655C-70.322,-13.266 -70.231,-13.775 -69.847,-14.254C-69.261,-14.984 -68.523,-15.535 -67.715,-16.109C-67.699,-15.953 -67.686,-15.858 -67.68,-15.763C-67.639,-15.038 -67.616,-14.309 -67.549,-13.586C-67.531,-13.378 -67.578,-13.252 -67.706,-13.104C-68.227,-12.494 -68.769,-11.894 -69.237,-11.245C-69.544,-10.82 -69.771,-10.328 -69.979,-9.843C-70.205,-9.319 -70.176,-8.778 -69.915,-8.257C-69.827,-8.082 -69.759,-7.896 -69.658,-7.658C-70.093,-7.774 -70.359,-7.527 -70.644,-7.315C-71.57,-6.626 -72.378,-5.84 -72.813,-4.737C-72.823,-4.715 -72.86,-4.705 -72.939,-4.653C-72.979,-4.919 -73.033,-5.161 -73.05,-5.405C-73.116,-6.354 -72.963,-7.279 -72.713,-8.193C-72.388,-9.384 -71.921,-10.518 -71.305,-11.588C-71.153,-11.851 -71.031,-12.114 -71.001,-12.418C-71.002,-12.421 -71.002,-12.423 -71.003,-12.426C-71.003,-12.428 -71.003,-12.429 -71.004,-12.431C-71.043,-12.424 -71.093,-12.398 -71.12,-12.413C-71.63,-12.705 -71.779,-12.69 -72.046,-12.169C-72.461,-11.36 -72.87,-10.543 -73.213,-9.701C-73.667,-8.585 -73.948,-7.417 -74.007,-6.206C-74.058,-5.154 -73.906,-4.148 -73.366,-3.22C-73.273,-3.061 -73.232,-2.851 -73.23,-2.664C-73.223,-1.432 -72.849,-0.326 -72.065,0.619C-71.699,1.059 -71.249,1.43 -70.839,1.835C-70.745,1.928 -70.61,2.021 -70.585,2.135C-70.458,2.72 -70.36,3.313 -70.245,3.94C-70.381,3.874 -70.478,3.833 -70.569,3.782C-71.794,3.108 -73.022,2.441 -74.241,1.757C-76.566,0.454 -78.756,-1.048 -80.794,-2.769C-81.356,-3.244 -81.868,-3.757 -82.235,-4.401C-82.494,-4.855 -82.669,-5.339 -82.71,-5.862C-82.77,-6.609 -82.536,-7.267 -82.086,-7.859C-81.588,-8.514 -81.136,-9.197 -80.882,-9.992C-80.35,-11.66 -81.106,-13.159 -82.782,-13.645C-84.579,-14.167 -86.242,-13.85 -87.728,-12.698C-88.533,-12.074 -89.095,-11.255 -89.574,-10.308C-89.389,-10.318 -89.258,-10.325 -89.126,-10.332C-88.869,-10.344 -88.61,-10.369 -88.353,-10.363C-88.058,-10.357 -87.98,-10.287 -87.922,-9.999C-87.88,-9.79 -87.856,-9.578 -87.837,-9.367C-87.718,-8.142 -87.604,-6.917 -87.488,-5.692C-87.46,-5.387 -87.43,-5.082 -87.4,-4.777C-87.439,-4.752 -87.478,-4.727 -87.516,-4.703C-87.604,-4.825 -87.682,-4.954 -87.779,-5.067C-88.394,-5.774 -88.886,-6.553 -89.201,-7.437C-89.385,-7.953 -89.542,-8.478 -89.75,-8.983C-89.923,-9.401 -90.117,-9.82 -90.367,-10.195C-90.772,-10.802 -91.382,-11.045 -92.104,-10.976C-92.451,-10.943 -92.799,-10.893 -93.139,-10.814C-94.248,-10.554 -95.269,-10.102 -96.143,-9.355C-97.009,-8.616 -97.504,-7.676 -97.67,-6.496C-96.826,-6.668 -96.013,-6.923 -95.189,-6.586C-94.448,-6.284 -93.717,-5.367 -93.677,-4.69C-93.705,-4.678 -93.732,-4.655 -93.76,-4.655C-93.896,-4.651 -94.033,-4.653 -94.169,-4.654C-95.042,-4.665 -95.899,-4.583 -96.72,-4.26C-97.238,-4.056 -97.715,-3.778 -98.018,-3.3C-98.292,-2.865 -98.563,-2.414 -98.739,-1.935C-99.28,-0.46 -98.998,0.864 -97.816,1.92C-97.335,2.349 -96.75,2.665 -96.208,3.026C-96.128,3.079 -96.026,3.097 -95.89,3.149C-95.94,2.255 -96.026,1.403 -95.649,0.588C-95.56,0.588 -95.484,0.579 -95.411,0.589C-94.359,0.742 -93.305,0.879 -92.256,1.056C-91.164,1.241 -90.07,1.436 -89.032,1.845C-88.71,1.972 -88.401,2.142 -88.108,2.327C-87.835,2.501 -87.701,2.769 -87.742,3.108C-87.775,3.395 -87.79,3.684 -87.827,3.97C-87.968,5.077 -88.228,6.149 -88.743,7.149C-89.154,7.949 -89.765,8.538 -90.604,8.879C-90.74,8.934 -90.871,9.002 -91.03,9.075C-90.06,10.074 -88.955,10.731 -87.622,10.966C-85.996,11.254 -84.56,10.817 -83.279,9.75C-82.4,10.502 -81.537,11.221 -80.694,11.964C-78.626,13.788 -76.767,15.815 -74.955,17.887C-73.822,19.182 -72.604,20.391 -71.228,21.433C-71.169,21.476 -71.12,21.535 -71.055,21.596C-71.167,21.718 -71.267,21.832 -71.37,21.943C-73.143,23.823 -74.904,25.714 -76.691,27.58C-78.163,29.117 -79.659,30.63 -81.156,32.142C-81.744,32.739 -82.374,33.295 -83.109,33.703C-83.478,33.906 -83.874,34.081 -84.28,34.19C-84.856,34.344 -85.213,34.103 -85.378,33.53C-85.416,33.4 -85.438,33.265 -85.46,33.129C-85.621,32.182 -85.826,31.244 -86.274,30.39C-86.496,29.965 -86.775,29.549 -87.106,29.206C-87.636,28.657 -88.315,28.513 -89.037,28.792C-90.549,29.375 -91.679,30.386 -92.354,31.872C-92.793,32.837 -92.722,33.812 -92.341,34.833C-92.112,34.581 -91.923,34.344 -91.704,34.141C-91.518,33.968 -91.309,33.81 -91.088,33.686C-90.942,33.607 -90.743,33.601 -90.665,33.808C-90.47,34.324 -90.321,34.85 -90.391,35.41C-90.428,35.706 -90.576,35.921 -90.886,35.991C-90.99,36.015 -91.094,36.038 -91.196,36.064C-92.232,36.312 -93.249,36.617 -94.19,37.13C-94.701,37.411 -95.174,37.74 -95.534,38.206C-95.967,38.766 -96.164,39.402 -95.935,40.087C-95.682,40.849 -95.392,41.603 -95.071,42.338C-94.79,42.983 -94.27,43.408 -93.597,43.611C-93.177,43.737 -92.74,43.803 -92.311,43.897C-92.198,43.921 -92.086,43.95 -91.99,43.974C-91.978,44.044 -91.965,44.074 -91.968,44.102C-92.152,45.817 -91.437,47.176 -90.259,48.335C-89.798,48.79 -89.205,49.007 -88.554,48.975C-87.583,48.932 -86.775,48.453 -85.936,47.975C-86.375,47.539 -86.879,47.229 -87.158,46.701C-87.094,46.642 -87.051,46.599 -87.003,46.563C-85.925,45.781 -85.003,44.841 -84.149,43.824C-83.779,43.382 -83.384,42.95 -82.939,42.588C-82.092,41.898 -81.224,41.229 -80.324,40.611C-79.033,39.723 -77.678,38.939 -76.211,38.372C-76.065,38.315 -75.914,38.274 -75.711,38.208C-75.86,38.813 -75.747,39.311 -75.503,39.778C-75.148,40.455 -74.583,40.823 -73.808,40.795C-73.509,40.784 -73.204,40.721 -72.918,40.631C-72.081,40.363 -71.349,39.906 -70.717,39.295C-69.967,38.567 -69.452,37.704 -69.267,36.664C-69.215,36.369 -69.208,36.064 -69.179,35.749C-69.033,35.692 -68.896,35.632 -68.753,35.585C-67.385,35.129 -66.021,34.662 -64.646,34.229C-62.414,33.524 -60.206,32.761 -58.125,31.672C-57.345,31.262 -56.572,30.841 -55.796,30.422C-55.604,30.317 -55.415,30.26 -55.189,30.319C-54.397,30.527 -53.556,31.465 -53.431,32.323L-53.977,32.323C-54.786,32.319 -55.583,32.41 -56.352,32.678C-56.907,32.874 -57.406,33.158 -57.761,33.641C-58.132,34.147 -58.427,34.696 -58.601,35.299C-58.899,36.33 -58.821,37.315 -58.201,38.221C-57.58,39.129 -56.673,39.665 -55.648,40.186C-55.718,39.264 -55.804,38.403 -55.416,37.572C-55.212,37.591 -55.031,37.6 -54.853,37.625C-54.056,37.74 -53.258,37.845 -52.464,37.976C-51.265,38.172 -50.065,38.372 -48.919,38.793C-48.579,38.917 -48.252,39.087 -47.94,39.27C-47.631,39.453 -47.472,39.736 -47.517,40.114C-47.554,40.417 -47.567,40.719 -47.607,41.02C-47.75,42.096 -48.007,43.139 -48.502,44.113C-48.917,44.931 -49.538,45.527 -50.389,45.879C-50.52,45.933 -50.644,46.001 -50.785,46.069C-49.748,47.152 -48.517,47.817 -47.235,47.987C-45.678,48.189 -44.287,47.793 -43.078,46.752C-42.886,46.905 -42.721,47.037 -42.557,47.17C-39.752,49.426 -37.238,51.978 -34.886,54.697C-33.701,56.065 -32.449,57.371 -31.015,58.487C-30.966,58.525 -30.909,58.549 -30.842,58.588C-30.974,58.741 -31.058,58.844 -31.15,58.944C-32.139,59.997 -32.716,60.591 -33.719,61.629C-33.96,61.879 -34.221,62.151 -34.47,62.41L-33.377,62.645C-31.346,60.486 -29.313,58.329 -27.282,56.169C-27.178,56.056 -27.064,55.949 -26.924,55.806C-26.865,55.977 -26.835,56.079 -26.796,56.176C-26.493,56.955 -26.205,57.739 -25.876,58.504C-25.69,58.936 -25.441,59.34 -25.213,59.751C-25.107,59.937 -24.939,60.042 -24.718,60.001C-24.506,59.962 -24.374,59.822 -24.327,59.606C-24.31,59.517 -24.287,59.427 -24.261,59.34C-24.011,58.499 -23.759,57.654 -23.502,56.814C-23.46,56.674 -23.389,56.548 -23.33,56.416C-23.124,57.083 -23.005,57.739 -22.889,58.395C-22.734,59.261 -22.574,60.128 -22.236,60.948C-22.143,61.179 -22.039,61.403 -21.738,61.411C-21.44,61.417 -21.306,61.219 -21.225,60.976C-21.042,60.429 -20.843,59.886 -20.704,59.33C-20.442,58.278 -20.558,57.216 -20.646,56.154C-20.676,55.762 -20.694,55.36 -20.642,54.975C-20.477,53.749 -19.845,52.76 -18.976,51.911C-18.908,51.842 -18.818,51.799 -18.717,51.732C-18.701,51.838 -18.69,51.897 -18.685,51.958C-18.577,53.149 -18.215,54.242 -17.474,55.199C-17.307,55.415 -17.163,55.65 -17.03,55.887C-16.624,56.62 -16.391,57.393 -16.476,58.243C-16.492,58.408 -16.49,58.581 -16.457,58.741C-16.408,58.974 -16.181,59.117 -15.943,59.106C-15.695,59.09 -15.515,58.934 -15.484,58.682C-15.466,58.532 -15.472,58.378 -15.482,58.228C-15.539,57.365 -15.31,56.573 -14.883,55.833C-14.729,55.571 -14.563,55.313 -14.383,55.071C-13.747,54.219 -13.401,53.262 -13.294,52.212C-13.279,52.057 -13.237,51.905 -13.196,51.694C-12.386,52.444 -11.754,53.234 -11.477,54.244C-11.352,54.693 -11.286,55.167 -11.266,55.631C-11.247,56.052 -11.318,56.479 -11.359,56.904C-11.497,58.308 -11.292,59.661 -10.731,60.956C-10.634,61.185 -10.528,61.407 -10.228,61.411C-9.927,61.413 -9.805,61.208 -9.718,60.969C-9.605,60.655 -9.472,60.344 -9.398,60.019C-9.228,59.251 -9.085,58.474 -8.935,57.7C-8.852,57.272 -8.772,56.845 -8.691,56.42C-8.539,56.575 -8.46,56.721 -8.411,56.879C-8.157,57.722 -7.911,58.566 -7.661,59.411C-7.631,59.511 -7.62,59.621 -7.575,59.716C-7.421,60.053 -7.048,60.112 -6.795,59.84C-6.732,59.775 -6.687,59.692 -6.643,59.613C-5.715,57.959 -5.014,56.221 -4.721,54.336C-4.68,54.078 -4.649,53.819 -4.601,53.458C-4.499,53.665 -4.435,53.766 -4.399,53.877C-4.2,54.498 -4.006,55.122 -3.818,55.746C-3.76,55.934 -3.745,56.135 -3.677,56.319C-3.538,56.695 -3.156,56.765 -2.878,56.479C-2.827,56.424 -2.786,56.359 -2.743,56.296C-2.22,55.541 -1.807,54.734 -1.534,53.856C-1.032,52.241 -1.057,50.656 -1.78,49.103C-1.947,48.746 -2.102,48.383 -2.254,48.018C-2.568,47.268 -2.76,46.494 -2.771,45.673C-2.782,44.71 -2.626,43.767 -2.414,42.833C-2.173,41.782 -1.89,40.74 -1.697,39.68C-1.616,39.24 -1.437,38.962 -1.098,38.687C0.132,37.696 0.935,36.444 1.099,34.837C1.103,34.794 1.13,34.754 1.153,34.698C6.361,35.788 11.616,36.513 16.944,36.884L16.944,35.961C11.678,35.566 6.476,34.877 1.316,33.77" style="fill:rgb(0,105,246);"/>
        </g>
        <g transform="matrix(6.15981,0,0,6.15981,539.928,1065.51)">
            <path d="M0,-144.001L-62.5,-108.001L-62.5,-36L0,0L62.501,-36L62.501,-108.001L0,-144.001ZM-57.499,-38.889L-57.499,-105.11L0,-138.23L57.501,-105.11L57.501,-38.889L0,-5.771L-57.499,-38.889Z" style="fill:rgb(0,105,246);fill-rule:nonzero;"/>
        </g>
        <g transform="matrix(6.15981,0,0,6.15981,526.552,334.424)">
            <path d="M0,-3.01C-0.186,-3.13 -0.324,-3.172 -0.486,-3.172C-0.773,-3.172 -0.93,-2.992 -0.93,-2.602L-0.93,-2.405L0.246,-2.405L0.246,-1.948L-0.93,-1.948L-0.93,0.618L-1.434,0.618L-1.434,-1.948L-2.285,-1.948L-2.285,-2.405L-1.434,-2.405L-1.434,-2.59C-1.434,-3.322 -1.08,-3.628 -0.504,-3.628C-0.229,-3.628 -0.041,-3.556 0.127,-3.454L0,-3.01Z" style="fill:rgb(0,105,246);fill-rule:nonzero;"/>
        </g>
        <g transform="matrix(6.15981,0,0,6.15981,541.483,322.121)">
            <path d="M0,2.207C0.62,2.207 0.973,1.685 0.973,1.103C0.973,0.522 0.62,0 0,0C-0.617,0 -0.971,0.522 -0.971,1.103C-0.971,1.685 -0.617,2.207 0,2.207M0,-0.456C0.924,-0.456 1.489,0.27 1.489,1.103C1.489,1.937 0.924,2.663 0,2.663C-0.922,2.663 -1.486,1.937 -1.486,1.103C-1.486,0.27 -0.922,-0.456 0,-0.456" style="fill:rgb(0,105,246);fill-rule:nonzero;"/>
        </g>
        <g transform="matrix(6.15981,0,0,6.15981,568.651,332.027)">
            <path d="M0,-1.056C-0.043,-1.404 -0.224,-1.608 -0.582,-1.608C-1.109,-1.608 -1.607,-1.11 -1.607,-0.084L-1.607,1.007L-2.111,1.007L-2.111,-2.015L-1.607,-2.015L-1.607,-1.458C-1.373,-1.824 -0.996,-2.063 -0.492,-2.063C0.107,-2.063 0.467,-1.703 0.504,-1.056L0,-1.056Z" style="fill:rgb(0,105,246);fill-rule:nonzero;"/>
        </g>
        <g transform="matrix(6.15981,0,0,6.15981,517.195,296.849)">
            <rect x="0" y="-6.475" width="0.809" height="6.475" style="fill:rgb(0,105,246);fill-rule:nonzero;"/>
        </g>
        <g transform="matrix(6.15981,0,0,6.15981,536.956,252.597)">
            <path d="M0,7.79C0.055,7.79 0.129,7.74 0.129,7.685L0.129,0.101C0.129,0.045 0.055,0 0,0L-2.527,0C-2.584,0 -2.604,0.023 -2.604,0.051L-2.604,0.707C-2.604,0.763 -2.584,0.81 -2.527,0.81L-0.809,0.81C-0.754,0.81 -0.68,0.854 -0.68,0.91L-0.68,6.875C-0.68,6.931 -0.754,6.98 -0.809,6.98L-2.527,6.98C-2.584,6.98 -2.604,6.999 -2.604,7.027L-2.604,7.685C-2.604,7.74 -2.584,7.79 -2.527,7.79L0,7.79Z" style="fill:rgb(0,105,246);fill-rule:nonzero;"/>
        </g>
        <g transform="matrix(6.15981,0,0,6.15981,543.988,296.849)">
            <rect x="0" y="-6.475" width="0.809" height="6.475" style="fill:rgb(0,105,246);fill-rule:nonzero;"/>
        </g>
        <g transform="matrix(6.15981,0,0,6.15981,548.343,252.595)">
            <path d="M0,7.786L0,6.977C1.112,6.977 1.891,5.594 1.891,3.893C1.891,2.193 1.113,0.809 0,0.809L0,0C1.52,0 2.698,1.746 2.698,3.893C2.698,6.039 1.52,7.786 0,7.786" style="fill:rgb(0,105,246);fill-rule:nonzero;"/>
        </g>
        <g transform="matrix(6.15981,0,0,6.15981,496.622,267.952)">
            <path d="M0,2.806L0,4.28C0,4.885 0.389,5.298 1,5.298L2.252,5.298C2.279,5.298 2.326,5.247 2.326,5.192L2.326,4.585C2.326,4.53 2.256,4.488 2.201,4.488L1.139,4.488C0.879,4.488 0.811,4.377 0.811,4.078L0.811,2.333C0.811,1.723 0.562,1.498 0.26,1.388C0.562,1.278 0.811,1.053 0.811,0.444L0.811,-1.301C0.811,-1.595 0.869,-1.683 1.139,-1.683L2.252,-1.683C2.279,-1.683 2.326,-1.729 2.326,-1.784L2.326,-2.391C2.326,-2.447 2.256,-2.492 2.201,-2.492L1,-2.492C0.389,-2.492 0,-2.096 0,-1.504L0,0.137C0,0.137 -0.02,0.44 -0.035,0.544C-0.072,0.817 -0.408,1.052 -0.615,1.049L-0.934,1.049C-0.99,1.049 -1.012,1.092 -1.012,1.148L-1.012,1.755C-1.012,1.81 -0.99,1.858 -0.934,1.858L-0.643,1.858C-0.379,1.854 -0.043,2.077 -0.018,2.41C-0.01,2.507 0,2.806 0,2.806" style="fill:rgb(0,105,246);fill-rule:nonzero;"/>
        </g>
        <g transform="matrix(6.15981,0,0,6.15981,521.391,257.587)">
            <path d="M0.127,-0.81L-0.607,-0.81C-0.664,-0.81 -0.684,-0.764 -0.684,-0.709L-0.684,0L0.127,0L0.127,-0.81Z" style="fill:rgb(0,105,246);fill-rule:nonzero;"/>
        </g>
        <g transform="matrix(6.15981,0,0,6.15981,517.195,299.982)">
            <path d="M0,-0.712L0,-0.008C0,0.047 0.018,0.097 0.074,0.097L0.809,0.097L0.809,-0.712L0,-0.712Z" style="fill:rgb(0,105,246);fill-rule:nonzero;"/>
        </g>
        <g transform="matrix(6.15981,0,0,6.15981,548.175,257.587)">
            <path d="M0.129,-0.81L-0.607,-0.81C-0.664,-0.81 -0.68,-0.764 -0.68,-0.709L-0.68,0L0.129,0L0.129,-0.81Z" style="fill:rgb(0,105,246);fill-rule:nonzero;"/>
        </g>
        <g transform="matrix(6.15981,0,0,6.15981,543.988,299.982)">
            <path d="M0,-0.712L0,-0.008C0,0.047 0.016,0.097 0.071,0.097L0.809,0.097L0.809,-0.712L0,-0.712Z" style="fill:rgb(0,105,246);fill-rule:nonzero;"/>
        </g>
        <g transform="matrix(6.15981,0,0,6.15981,575.148,294.748)">
            <path d="M0,-1.544L0,-0.07C0,0.535 0.379,0.948 0.992,0.948L2.242,0.948C2.27,0.948 2.326,0.897 2.326,0.842L2.326,0.235C2.326,0.18 2.248,0.138 2.193,0.138L1.13,0.138C0.867,0.138 0.808,0.027 0.808,-0.272L0.808,-2.017C0.808,-2.213 0.751,-2.391 0.705,-2.492L-0.653,-2.492C-0.28,-2.391 -0.12,-2.257 -0.045,-1.933C-0.004,-1.772 0,-1.544 0,-1.544" style="fill:rgb(0,105,246);fill-rule:nonzero;"/>
        </g>
        <g transform="matrix(6.15981,0,0,6.15981,574.787,255.706)">
            <path d="M0,2.531C-0.078,2.796 -0.254,2.935 -0.564,3.036L0.709,3.036C0.787,2.834 0.866,2.699 0.866,2.431L0.866,0.687C0.866,0.392 0.918,0.305 1.188,0.305L2.301,0.305C2.33,0.305 2.385,0.259 2.385,0.203L2.385,-0.404C2.385,-0.459 2.307,-0.505 2.252,-0.505L1.051,-0.505C0.437,-0.505 0.059,-0.108 0.059,0.484L0.059,2.124C0.059,2.124 0.039,2.399 0,2.531" style="fill:rgb(0,105,246);fill-rule:nonzero;"/>
        </g>
        <g transform="matrix(6.15981,0,0,6.15981,575.996,276.858)">
            <path d="M0,0.013C0.205,0.088 0.431,0.209 0.567,0.411L2.054,0.411C2.108,0.411 2.188,0.364 2.188,0.308L2.188,-0.299C2.188,-0.355 2.108,-0.398 2.054,-0.398L0.511,-0.398C0.411,-0.195 0.17,-0.049 0,0.013" style="fill:rgb(0,105,246);fill-rule:nonzero;"/>
        </g>
        <g transform="matrix(6.15981,0,0,6.15981,569.343,279.399)">
            <path d="M0,-0.81C-0.057,-0.81 -0.069,-0.767 -0.069,-0.711L-0.069,-0.104C-0.069,-0.049 -0.056,0 0,0L1.647,0C1.556,-0.203 1.33,-0.342 1.168,-0.405C1.339,-0.467 1.49,-0.608 1.593,-0.81L0,-0.81Z" style="fill:rgb(0,105,246);fill-rule:nonzero;"/>
        </g>
        <g transform="matrix(-6.15981,0,0,6.15981,924.925,684.487)">
            <rect x="37.252" y="24.928" width="50.497" height="12" style="fill:rgb(0,105,246);"/>
        </g>
        <g id="Flensburg" transform="matrix(6.15981,0,0,6.15981,154.943,178.496)">
            <g transform="matrix(1,0,0,1,46.0645,115.957)">
                <path d="M0,-7.221L0,-6.354L-3.291,-6.354L-3.291,-4.198L-0.619,-4.198L-0.619,-3.33L-3.291,-3.33L-3.291,0L-4.198,0L-4.198,-7.221L0,-7.221Z" style="fill:white;fill-rule:nonzero;"/>
            </g>
            <g transform="matrix(-1,0,0,1,94.857,80.611)">
                <rect x="46.995" y="28.043" width="0.867" height="7.303" style="fill:white;"/>
            </g>
            <g transform="matrix(1,0,0,1,49.9663,113.955)">
                <path d="M0,-1.193L2.857,-1.193C2.703,-1.937 2.249,-2.494 1.413,-2.494C0.609,-2.494 0.155,-1.947 0,-1.193M3.765,-0.412L-0.051,-0.412C0,0.549 0.475,1.301 1.413,1.301C2.176,1.301 2.568,0.952 2.857,0.311L3.621,0.641C3.136,1.653 2.486,2.084 1.413,2.084C-0.165,2.084 -0.938,0.795 -0.938,-0.597C-0.938,-1.988 -0.165,-3.277 1.413,-3.277C2.95,-3.277 3.765,-2.101 3.765,-0.814L3.765,-0.412Z" style="fill:white;fill-rule:nonzero;"/>
            </g>
            <g transform="matrix(1,0,0,1,59.0347,110.678)">
                <path d="M0,5.279L-0.866,5.279L-0.866,1.845C-0.866,1.134 -1.186,0.783 -1.764,0.783C-2.537,0.783 -3.249,1.66 -3.249,3.103L-3.249,5.279L-4.116,5.279L-4.116,0.082L-3.249,0.082L-3.249,1.041C-2.867,0.371 -2.249,0 -1.526,0C-0.578,0 0,0.588 0,1.619L0,5.279Z" style="fill:white;fill-rule:nonzero;"/>
            </g>
            <g transform="matrix(1,0,0,1,63.4956,115.246)">
                <path d="M0,-3.775L-0.588,-3.269C-0.928,-3.64 -1.176,-3.785 -1.537,-3.785C-1.888,-3.785 -2.167,-3.546 -2.167,-3.125C-2.167,-2.187 0.247,-2.382 0.247,-0.857C0.247,0.186 -0.423,0.793 -1.475,0.793C-2.538,0.793 -3.146,0.092 -3.415,-0.609L-2.682,-1.011C-2.455,-0.455 -2.053,0.01 -1.475,0.01C-0.949,0.01 -0.64,-0.257 -0.64,-0.804C-0.64,-1.775 -3.033,-1.445 -3.033,-3.134C-3.033,-3.939 -2.445,-4.568 -1.506,-4.568C-0.867,-4.568 -0.361,-4.291 0,-3.775" style="fill:white;fill-rule:nonzero;"/>
            </g>
            <g transform="matrix(1,0,0,1,67.2173,113.232)">
                <path d="M0,-1.771C-0.949,-1.771 -1.506,-0.986 -1.506,0.125C-1.506,1.241 -0.949,2.024 0,2.024C0.918,2.024 1.506,1.241 1.506,0.125C1.506,-0.986 0.918,-1.771 0,-1.771M0.082,2.807C-0.547,2.807 -1.186,2.467 -1.434,2.086L-1.434,2.725L-2.301,2.725L-2.301,-4.578L-1.434,-4.578L-1.434,-1.853C-1.258,-2.152 -0.578,-2.554 0.082,-2.554C1.609,-2.554 2.393,-1.431 2.393,0.125C2.393,1.684 1.609,2.807 0.082,2.807" style="fill:white;fill-rule:nonzero;"/>
            </g>
            <g transform="matrix(1,0,0,1,70.7876,116.039)">
                <path d="M0,-5.279L0.867,-5.279L0.867,-1.845C0.867,-1.133 1.186,-0.783 1.764,-0.783C2.537,-0.783 3.25,-1.66 3.25,-3.103L3.25,-5.279L4.115,-5.279L4.115,-0.082L3.25,-0.082L3.25,-1.041C2.867,-0.371 2.248,0 1.527,0C0.578,0 0,-0.588 0,-1.619L0,-5.279Z" style="fill:white;fill-rule:nonzero;"/>
            </g>
            <g transform="matrix(1,0,0,1,79.3716,115.03)">
                <path d="M0,-3.424C-0.186,-3.516 -0.393,-3.569 -0.609,-3.569C-1.32,-3.569 -2.063,-2.733 -2.063,-1.041L-2.063,0.928L-2.93,0.928L-2.93,-4.27L-2.063,-4.27L-2.063,-3.383C-1.754,-3.961 -1.113,-4.352 -0.537,-4.352C-0.248,-4.352 0.021,-4.279 0.176,-4.197L0,-3.424Z" style="fill:white;fill-rule:nonzero;"/>
            </g>
            <g transform="matrix(1,0,0,1,82.0728,115.114)">
                <path d="M0,-1.694C0.525,-1.694 0.969,-2.034 0.969,-2.682C0.969,-3.333 0.525,-3.694 0,-3.694C-0.525,-3.694 -0.969,-3.333 -0.969,-2.682C-0.969,-2.034 -0.525,-1.694 0,-1.694M-0.609,0.544C-0.742,0.544 -0.877,0.535 -0.99,0.525C-1.238,0.72 -1.33,0.978 -1.33,1.286C-1.33,1.865 -0.877,2.267 0.01,2.267C0.918,2.267 1.32,1.855 1.32,1.318C1.32,0.74 0.949,0.544 0.443,0.544L-0.609,0.544ZM0,-4.436C0.34,-4.436 0.66,-4.344 0.939,-4.2L1.867,-4.725L2.26,-4.014L1.559,-3.622C1.723,-3.364 1.816,-3.044 1.816,-2.682C1.816,-1.6 1.021,-0.952 0,-0.952C-0.33,-0.952 -0.639,-1.012 -0.896,-1.137C-1.135,-1.024 -1.238,-0.858 -1.238,-0.632C-1.238,-0.352 -1.031,-0.198 -0.65,-0.198L0.578,-0.198C1.547,-0.198 2.207,0.286 2.207,1.236C2.207,2.515 1.197,3.031 0.01,3.031C-1.311,3.031 -2.197,2.402 -2.197,1.318C-2.197,0.843 -1.99,0.472 -1.713,0.236C-1.93,0.05 -2.063,-0.219 -2.063,-0.59C-2.063,-1.034 -1.814,-1.354 -1.434,-1.549C-1.672,-1.839 -1.814,-2.219 -1.814,-2.682C-1.814,-3.757 -1.021,-4.436 0,-4.436" style="fill:white;fill-rule:nonzero;"/>
            </g>
        </g>
    </g>
</svg>
